<svg width="105" height="105" viewBox="0 0 105 105" fill="none" xmlns="http://www.w3.org/2000/svg">
<path d="M9.5498 10.4072C9.5498 8.17403 11.4232 6.46632 13.6981 6.46632H23.5511C24.5757 6.46632 25.4062 5.63575 25.4062 4.6112V3.85511C25.4062 2.83056 24.5757 2 23.5511 2H13.6981C11.4232 2 9.28216 2.78817 7.67635 4.36452C6.07054 5.94087 5.13382 8.17403 5 10.4072V24.2614C5 25.2859 5.83056 26.1165 6.85511 26.1165H7.69469C8.71924 26.1165 9.5498 25.2859 9.5498 24.2614V10.4072Z" fill="#002646"/>
<path d="M9.5498 10.4072C9.5498 8.17403 11.4232 6.46632 13.6981 6.46632H23.5511C24.5757 6.46632 25.4062 5.63575 25.4062 4.6112V3.85511C25.4062 2.83056 24.5757 2 23.5511 2H13.6981C11.4232 2 9.28216 2.78817 7.67635 4.36452C6.07054 5.94087 5.13382 8.17403 5 10.4072V24.2614C5 25.2859 5.83056 26.1165 6.85511 26.1165H7.69469C8.71924 26.1165 9.5498 25.2859 9.5498 24.2614V10.4072Z" stroke="white"/>
<path d="M87.8451 7.59722C88.6633 8.37823 89.0724 9.41958 89.0724 10.4609V24.2613C89.0724 25.2859 89.903 26.1165 90.9275 26.1165H91.8537C92.8783 26.1165 93.7089 25.2859 93.7089 24.2613V10.4609C93.7089 8.24806 92.8907 6.16538 91.2543 4.47319C89.6179 2.91118 87.436 2 85.1178 2H77.8551C76.8306 2 76 2.83056 76 3.85511V4.5706C76 5.59515 76.8306 6.42571 77.8551 6.42571H85.1178C85.936 6.42571 87.0269 6.81622 87.8451 7.59722Z" fill="#002646"/>
<path d="M87.8451 7.59722C88.6633 8.37823 89.0724 9.41958 89.0724 10.4609V24.2613C89.0724 25.2859 89.903 26.1165 90.9275 26.1165H91.8537C92.8783 26.1165 93.7089 25.2859 93.7089 24.2613V10.4609C93.7089 8.24806 92.8907 6.16538 91.2543 4.47319C89.6179 2.91118 87.436 2 85.1178 2H77.8551C76.8306 2 76 2.83056 76 3.85511V4.5706C76 5.59515 76.8306 6.42571 77.8551 6.42571H85.1178C85.936 6.42571 87.0269 6.81622 87.8451 7.59722Z" stroke="white"/>
<path d="M91.1891 79.4219C90.1646 79.4219 89.334 80.2524 89.334 81.277V93.3027C89.334 95.5358 87.4606 97.2436 85.1857 97.2436H75.8551C74.8306 97.2436 74 98.0741 74 99.0987V99.8548C74 100.879 74.8306 101.71 75.8551 101.71H85.1857H85.3195C90.0031 101.71 93.8838 97.9004 93.8838 93.3027V81.277C93.8838 80.2524 93.0533 79.4219 92.0287 79.4219H91.1891Z" fill="#002646"/>
<path d="M91.1891 79.4219C90.1646 79.4219 89.334 80.2524 89.334 81.277V93.3027C89.334 95.5358 87.4606 97.2436 85.1857 97.2436H75.8551C74.8306 97.2436 74 98.0741 74 99.0987V99.8548C74 100.879 74.8306 101.71 75.8551 101.71H85.1857H85.3195C90.0031 101.71 93.8838 97.9004 93.8838 93.3027V81.277C93.8838 80.2524 93.0533 79.4219 92.0287 79.4219H91.1891Z" stroke="white"/>
<path d="M10.8084 97.1981C9.99796 96.4171 9.59272 95.3758 9.59272 94.3344V83.2047C9.59272 82.1802 8.76216 81.3496 7.73761 81.3496H6.85511C5.83056 81.3496 5 82.1802 5 83.2047V94.3344C5 99.0205 8.78224 102.795 13.6451 102.795H24.564C25.5885 102.795 26.4191 101.965 26.4191 100.94V100.225C26.4191 99.2002 25.5885 98.3696 24.564 98.3696H13.6451C12.6996 98.3696 11.6189 97.9791 10.8084 97.1981Z" fill="#002646"/>
<path d="M10.8084 97.1981C9.99796 96.4171 9.59272 95.3758 9.59272 94.3344V83.2047C9.59272 82.1802 8.76216 81.3496 7.73761 81.3496H6.85511C5.83056 81.3496 5 82.1802 5 83.2047V94.3344C5 99.0205 8.78224 102.795 13.6451 102.795H24.564C25.5885 102.795 26.4191 101.965 26.4191 100.94V100.225C26.4191 99.2002 25.5885 98.3696 24.564 98.3696H13.6451C12.6996 98.3696 11.6189 97.9791 10.8084 97.1981Z" stroke="white"/>
<path d="M26.76 43.1013C26.76 43.1013 23.9036 68.308 49.4611 68.308C73.1644 68.308 70.8592 47.1103 71.1098 43.1013" stroke="#002646" stroke-width="4.54327" stroke-miterlimit="10" stroke-linecap="round"/>
<path d="M71.1098 52.1216C76.2714 52.1216 77.3739 49.3153 77.5242 46.8597C77.7247 44.1035 77.1233 41.5979 76.0208 41.5979" stroke="#002646" stroke-width="4.54327" stroke-miterlimit="10" stroke-linecap="round"/>
<path d="M21.899 39.7437C21.899 39.7437 19.2431 40.8962 19.5437 45.1057C19.8945 49.2651 21.6986 51.47 26.6096 51.47" stroke="#002646" stroke-width="4.54327" stroke-miterlimit="10" stroke-linecap="round"/>
<path d="M39.7893 44.354V47.9621" stroke="#002646" stroke-width="4.54327" stroke-miterlimit="10" stroke-linecap="round"/>
<path d="M58.331 44.354V47.9621" stroke="#002646" stroke-width="4.54327" stroke-miterlimit="10" stroke-linecap="round"/>
<path d="M72.3626 88.5536C72.3626 88.5536 78.8772 88.8042 80.3806 88.5536C83.7883 88.0024 81.6334 83.8931 81.6334 83.8931C81.6334 83.8931 72.6131 74.1712 56.2263 72.718L56.1761 68.3582" stroke="#002646" stroke-width="4.54327" stroke-miterlimit="10" stroke-linecap="round" stroke-linejoin="round"/>
<path d="M39.7893 68.3081V71.9663C21.899 74.8729 15.4846 84.6449 15.4846 84.6449C15.4846 84.6449 14.4824 88.2029 17.8399 88.2029C30.7189 88.1528 61.3879 88.4033 62.34 88.4033" stroke="#002646" stroke-width="4.54327" stroke-miterlimit="10" stroke-linecap="round" stroke-linejoin="round"/>
<path d="M42.5455 57.7341C42.5455 57.7341 43.5478 60.6908 48.9599 60.6908C53.7206 60.6908 55.0737 57.7341 55.0737 57.7341" stroke="#002646" stroke-width="4.54327" stroke-miterlimit="10" stroke-linecap="round"/>
<path d="M38.2358 72.2668C38.2358 72.2668 47.8574 77.8294 57.5292 72.8181" stroke="#002646" stroke-width="4.54327" stroke-miterlimit="10" stroke-linecap="round" stroke-linejoin="round"/>
<path d="M83.2452 25H13.7548C12.7897 25 12 23.875 12 22.5C12 21.125 12.7897 20 13.7548 20H83.2452C84.2103 20 85 21.125 85 22.5C85 23.875 84.2103 25 83.2452 25Z" fill="#002646"/>
<path d="M70 21.5001C65.8406 16.5389 58.6216 12.3509 49 12.0001C37.4741 11.5491 30.8191 16.742 27.0105 21.7532" stroke="#002646" stroke-width="4.54327" stroke-miterlimit="10" stroke-linecap="round"/>
<path d="M23.3022 29.0696C21.6986 34.0307 21.899 38.2402 21.899 38.2402C21.899 38.2402 22.1997 41.5978 26.6598 41.5978C31.1198 41.5978 31.1198 38.4407 31.1198 35.7346C31.1198 33.0285 32.7735 27.8669 35.7803 29.721C38.787 31.5752 46.1536 39.2425 55.8254 40.7459C65.4971 42.2492 76.0208 40.7459 76.0208 40.7459C76.0208 40.7459 76.4718 35.3838 73.866 29.0696" stroke="#002646" stroke-width="4.54327" stroke-miterlimit="10" stroke-linecap="round"/>
</svg>
