<svg width="160" height="160" viewBox="0 0 160 160" fill="none" xmlns="http://www.w3.org/2000/svg">
<rect x="6" y="31" width="149" height="96.5741" rx="8.27778" stroke="white" stroke-width="5.51852"/>
<line x1="8.33647" y1="43.8396" x2="140.247" y2="43.8396" stroke="white" stroke-width="4.67294" stroke-linecap="round"/>
<line x1="63.5217" y1="57.6357" x2="89.2006" y2="57.6357" stroke="white" stroke-width="4.67294" stroke-linecap="round"/>
<line x1="19.3735" y1="104.543" x2="71.2654" y2="104.543" stroke="white" stroke-width="4.67294" stroke-linecap="round"/>
<line x1="82.8365" y1="104.543" x2="140.247" y2="104.543" stroke="white" stroke-width="4.67294" stroke-linecap="round"/>
<line x1="19.3735" y1="112.821" x2="40.9135" y2="112.821" stroke="white" stroke-width="4.67294" stroke-linecap="round"/>
<line x1="51.105" y1="112.821" x2="140.247" y2="112.821" stroke="white" stroke-width="4.67294" stroke-linecap="round"/>
<line x1="63.5217" y1="68.6728" x2="89.2006" y2="68.6728" stroke="white" stroke-width="4.67294" stroke-linecap="round"/>
<line x1="63.5217" y1="78.3303" x2="89.2006" y2="78.3303" stroke="white" stroke-width="4.67294" stroke-linecap="round"/>
<rect x="17.037" y="53.074" width="38.6296" height="40.0093" rx="2.75926" stroke="white" stroke-width="4.67294"/>
<rect x="110.852" y="54.4536" width="31.7315" height="33.1111" rx="2.75926" stroke="white" stroke-width="4.67294"/>
<line x1="110.852" y1="65.9135" x2="142.583" y2="65.9135" stroke="white" stroke-width="4.67294"/>
<line x1="110.852" y1="76.9506" x2="142.583" y2="76.9506" stroke="white" stroke-width="4.67294"/>
<circle cx="35.5953" cy="69.1624" r="7.78823" stroke="white" stroke-width="4.67294"/>
<path d="M23.9129 93.3058C23.9129 88.7209 26.4619 79.6569 36.658 80.0801C46.8541 80.5033 49.0169 89.0736 48.8238 93.3058" stroke="white" stroke-width="4.67294"/>
</svg>
