<svg width="140" height="140" viewBox="0 0 140 140" fill="none" xmlns="http://www.w3.org/2000/svg">
<path d="M93.2033 65.5193C92.0348 65.5193 91.4517 66.3961 91.4517 67.2752V69.3234C91.4517 70.4948 92.3263 71.0817 93.2033 71.0817C94.3718 71.0817 94.9573 70.2025 94.9573 69.3234V67.2752C94.9573 66.3984 94.3718 65.5193 93.2033 65.5193Z" fill="white"/>
<path d="M107.811 65.5194C106.643 65.5194 106.057 66.3962 106.057 67.2753V69.3235C106.057 70.4949 106.934 71.0818 107.811 71.0818C108.977 71.0818 109.563 70.2027 109.563 69.3235V67.2753C109.563 66.3986 108.686 65.5194 107.811 65.5194Z" fill="white"/>
<path d="M105.474 76.062C104.597 75.4751 103.429 75.7697 102.843 76.3543C102.554 76.9388 101.677 77.2334 100.217 77.2334C99.0484 77.2334 98.1715 76.6489 97.5884 76.3543C97.0029 75.4751 95.8344 75.1829 94.9598 76.062C94.0828 76.6489 93.7889 77.8179 94.6659 78.6971C95.8344 80.453 97.8799 81.3321 100.217 81.3321C102.554 81.3321 104.597 80.453 105.766 78.6971C106.643 77.8179 106.349 76.6489 105.474 76.062Z" fill="white"/>
<path d="M33.6091 68.1567C32.4405 68.1567 31.8575 69.0335 31.8575 69.9127V72.2555C31.8575 73.4268 32.7344 74.0114 33.6091 74.0114C34.486 74.0114 35.3607 73.1322 35.3607 72.2555V70.2049C35.6522 69.0335 34.7776 68.1567 33.6091 68.1567Z" fill="white"/>
<path d="M45.5858 78.6969C44.7112 78.11 43.5427 78.4046 42.9572 78.9891C42.6657 79.5737 41.7911 79.8683 40.6202 79.8683C39.454 79.8683 38.577 79.2814 38.2855 78.9891C37.7001 78.11 36.5315 77.8178 35.6546 78.6969C34.7799 79.2814 34.4884 80.4528 35.363 81.3319C36.5315 82.7956 38.577 83.967 40.6202 83.967C42.6657 83.967 45.0027 83.0879 45.8797 81.3319C46.7543 80.4528 46.4628 79.2814 45.5858 78.6969Z" fill="white"/>
<path d="M79.7669 106.226C78.596 106.226 78.0129 107.105 78.0129 107.982V111.496C78.0129 112.668 78.8899 113.252 79.7669 113.252C80.6415 113.252 81.5185 112.373 81.5185 111.496V107.982C81.81 107.105 80.933 106.226 79.7669 106.226Z" fill="white"/>
<path d="M78.3044 9C75.3842 9 72.4618 10.1714 70.1247 12.2196C67.7877 10.1714 65.1591 9 61.9451 9C55.2278 9 49.6768 14.5624 49.6768 21.2985C49.6768 27.1555 53.18 33.0148 59.6104 37.7004C64.2821 41.2123 68.9585 42.9705 69.2501 43.2628C69.544 43.2628 69.8355 43.2628 69.8355 43.2628C70.1271 43.2628 70.4186 43.2628 70.4186 43.2628C70.7125 43.2628 75.3842 41.2123 80.0583 37.7004C86.4864 32.7226 89.9943 27.1555 89.9943 21.2985C90.2835 14.5624 85.0239 9 78.3044 9ZM70.1271 39.4563C66.913 37.9927 53.4762 31.5488 53.4762 21.2985C53.4762 16.6153 57.2733 12.8065 61.9474 12.8065C64.5784 12.8065 66.913 13.9779 68.667 16.0284C68.9585 16.3206 69.544 16.6129 70.1271 16.6129C70.7125 16.6129 71.2956 16.3206 71.5871 16.0284C73.3387 13.9779 75.6758 12.8065 78.3044 12.8065C82.9784 12.8065 86.7779 16.6129 86.7779 21.2985C86.7779 31.2566 73.3387 37.9927 70.1271 39.4563Z" fill="white"/>
<path d="M122.708 91.8746L111.023 88.3627C111.023 88.3627 111.023 88.3627 110.731 88.3627L108.977 88.0681C108.394 88.0681 108.103 87.4836 108.103 87.189V86.3122C113.066 83.9694 116.574 79.8707 118.328 74.8905H119.788C122.417 74.8905 124.462 72.84 124.462 70.2049V67.2776C124.462 65.8139 123.877 64.6425 123.002 63.7634V60.5438C123.002 49.7066 114.237 41.2146 103.72 41.2146H97.8801C87.0695 41.2146 78.5983 50.0012 78.5983 60.5438V63.4711C77.7237 64.3479 77.1382 65.5217 77.1382 66.983V69.9126C77.1382 72.5477 79.1837 74.5982 81.8123 74.5982H83.2724C84.7324 79.5737 88.5295 83.6772 93.206 86.0199V86.8967C93.206 87.4836 92.9144 87.7759 92.329 87.7759L90.8689 88.0681C90.8689 88.0681 90.8689 88.0681 90.5774 88.0681L78.8922 91.5823C74.8035 92.7537 71.5895 95.681 69.544 99.4898C68.667 98.3161 67.7901 97.1447 66.6215 96.2679L71.2956 94.8019C73.9242 93.9251 75.6758 91.5823 75.3843 88.655C75.0927 83.6772 73.9242 74.0114 69.2501 62.5896C63.4075 48.5329 54.934 43.2627 48.5106 41.2122C47.0506 38.8718 44.422 37.4058 41.208 37.4058C37.9939 37.4058 35.6569 38.8718 33.9053 41.2122C27.4796 43.2627 19.2999 48.5329 13.1658 62.5896C8.4917 74.0114 7.32318 83.6748 7.03164 88.655C6.7401 91.2901 8.4917 93.9251 11.1203 94.8019L15.7944 96.2679C12.5804 98.903 10.8287 102.709 10.8287 107.105V127.893C10.8287 129.067 11.7057 129.652 12.5804 129.652H132.061C133.227 129.652 133.813 128.772 133.813 127.893V106.226C133.516 99.4922 129.134 93.6329 122.708 91.8746ZM65.1591 64.0556C69.8332 74.8905 70.7102 84.2593 70.9994 88.9473C70.9994 89.824 70.4163 90.9978 69.5417 91.2901L61.6536 93.9251C61.362 93.9251 61.362 93.9251 61.0705 93.9251L50.2599 90.7032C50.2599 90.7032 50.2599 90.7032 49.9683 90.7032L48.2144 90.4109C47.9252 90.4109 47.6313 90.1187 47.6313 89.824V88.9473C47.6313 88.9473 47.6313 88.9473 47.9252 88.9473C48.2144 88.9473 48.2144 88.655 48.5083 88.655H48.7998C49.0914 88.655 49.0914 88.3627 49.3829 88.3627H49.6768C49.9683 88.3627 49.9683 88.0681 50.2599 88.0681C50.2599 88.0681 50.2599 88.0681 50.5514 88.0681C50.8453 87.7759 51.1369 87.7759 51.1369 87.4836C54.3485 85.1408 56.6856 81.9212 57.8541 78.1101H59.3142C61.6512 78.1101 63.6967 76.0619 63.6967 73.7191V70.7918V70.4972V70.2049V69.9126V69.6204C63.6967 69.6204 63.6967 69.3258 63.4028 69.3258C63.4028 69.3258 63.4028 69.0335 63.1136 69.0335C63.1136 69.0335 63.1136 68.7412 62.8197 68.7412L62.5282 68.449L62.2366 68.1567L61.9427 67.8621C61.9427 67.5698 61.9427 67.2776 61.9427 66.983V66.6931C61.9427 66.3984 61.9427 66.3984 61.9427 66.1062C61.9427 65.8139 61.9427 65.8139 61.9427 65.8139C61.9427 65.8139 61.9427 65.8139 61.9427 65.5217C61.3597 60.2492 58.7311 55.5636 54.9316 52.0494C54.6424 51.7572 54.3485 51.4649 53.7654 51.1703L53.4739 50.878L53.18 50.5858C53.18 50.5858 52.8885 50.5858 52.8885 50.2911C52.5969 50.2911 52.5969 49.9989 52.3054 49.9989C52.0138 49.7066 51.7199 49.7066 51.4284 49.4144C51.1369 49.4144 50.8453 49.1221 50.8453 49.1221C50.8453 49.1221 50.8453 49.1221 50.5514 49.1221C50.5514 49.1221 50.5514 49.1221 50.2599 49.1221V48.8298C50.2599 48.5352 50.4386 47.4958 50.4386 47.2035L50.2599 48.243C54.6448 48.2406 60.485 53.5131 65.1591 64.0556ZM47.6313 74.0114C48.7998 74.0114 49.3829 73.1322 49.3829 72.2554V70.2049C49.3829 69.9126 49.3829 69.3258 49.0914 69.0335H54.9316V71.6709C54.9316 71.9608 54.9316 72.2554 54.9316 72.5477C54.9316 72.84 54.9316 73.1322 54.9316 73.4268C54.9316 73.7191 54.9316 74.0114 54.9316 74.306C54.9316 74.5982 54.9316 74.8905 54.9316 74.8905V75.1828V75.475V75.7696V76.0619V76.3541C54.9316 76.6488 54.9316 76.6488 54.6424 76.9387C54.6424 76.9387 54.6424 76.9387 54.6424 77.2333C54.3485 77.5255 54.3485 78.1101 54.057 78.4047C53.18 80.1606 51.7199 81.9189 49.9683 83.3825L49.6768 83.6748C49.6768 83.6748 49.6768 83.6748 49.3829 83.6748L49.0914 83.9671C49.0914 83.9671 48.7998 83.9671 48.7998 84.2593H48.5083L48.2144 84.5516C48.2144 84.5516 48.2144 84.5516 47.9252 84.5516C47.6313 84.5516 47.6313 84.8462 47.3397 84.8462C47.3397 84.8462 47.3398 84.8462 47.0482 84.8462C46.7543 84.8462 46.7543 85.1385 46.4628 85.1385C46.1712 85.1385 46.1712 85.1385 45.8797 85.4307C45.8797 85.4307 45.8797 85.4307 45.5858 85.4307H45.2943H45.0027H44.7112C44.4196 85.4307 44.4196 85.4307 44.1257 85.4307H43.8342H43.5426H43.2488H42.9572H42.6657H42.3741C42.0826 85.4307 42.0826 85.4307 41.791 85.4307H41.4971C41.2056 85.4307 40.9141 85.4307 40.9141 85.4307C40.6202 85.4307 40.331 85.4307 40.331 85.4307C40.331 85.4307 40.331 85.4307 40.0371 85.4307C39.7432 85.4307 39.7432 85.4307 39.454 85.4307H39.1601C38.8686 85.4307 38.8686 85.4307 38.577 85.4307H38.2855C37.9916 85.4307 37.9916 85.4307 37.7 85.4307C37.7 85.4307 37.7 85.4307 37.4085 85.4307C37.117 85.4307 37.117 85.4307 36.8254 85.4307C36.8254 85.4307 36.8254 85.4307 36.5315 85.4307C36.24 85.4307 36.24 85.4307 35.9484 85.1385C35.0715 84.8462 34.1945 84.5516 33.3198 83.9671C33.026 83.9671 33.026 83.6748 32.7368 83.6748L32.4429 83.3825C32.4429 83.3825 32.1513 83.3825 32.1513 83.0879C29.8143 81.332 28.0627 79.2815 26.8942 76.6488C26.8942 76.3541 26.6026 76.0619 26.6026 76.0619V75.7696V75.475V75.1828V74.8905C26.6026 74.5982 26.6026 74.306 26.6026 74.306C26.6026 74.0114 26.6026 73.7191 26.6026 73.4268C26.6026 73.1322 26.6026 72.84 26.6026 72.84C26.6026 72.5477 26.6026 72.2554 26.6026 71.9608V69.0335C26.6026 69.0335 26.6026 69.0335 26.8942 69.0335C26.8942 69.0335 27.1857 69.0335 27.1857 68.7412C27.1857 68.7412 27.4772 68.7412 27.4772 68.449C27.4772 68.449 27.4772 68.449 27.7688 68.1567C27.7688 68.1567 28.0627 67.8621 28.0627 67.5698C28.0627 67.5698 28.0627 67.5698 28.0627 67.2776V66.983V66.6931L29.5227 61.4206C29.5227 61.1283 29.8143 61.1283 30.1058 60.8361C30.1058 60.8361 30.3997 60.8361 30.6913 60.8361C37.4085 66.3984 42.668 68.1567 46.1736 68.7412C45.882 69.0335 45.5881 69.6204 45.5881 69.9126V72.2554C45.8797 73.1322 46.7543 74.0114 47.6313 74.0114ZM58.7334 73.4268V73.1322C58.7334 72.84 58.7334 72.84 58.7334 72.5477C58.7334 72.2554 58.7334 71.9608 58.7334 71.6709V69.0335H59.3165C59.6104 69.0335 60.1935 69.3258 60.1935 69.9126V72.84C60.1935 73.1322 59.9019 73.7191 59.3165 73.7191H58.7334V73.4268ZM35.6522 45.3133V45.0187V44.7264V44.4341C36.5292 42.6759 38.2831 41.5068 40.3286 41.5068C42.3718 41.5068 44.1234 42.6759 45.0004 44.4341V44.7264V45.0187V45.3133C44.7088 45.3133 44.4173 45.3133 44.4173 45.0187C44.4173 45.0187 44.4173 45.0187 44.1234 45.0187C43.8318 45.0187 43.5403 45.0187 43.2464 44.7264C42.9549 44.7264 42.6633 44.7264 42.3718 44.7264C42.3718 44.7264 42.3718 44.7264 42.0802 44.7264C41.7887 44.7264 41.4948 44.7264 41.2033 44.7264C41.2033 44.7264 41.2033 44.7264 40.9117 44.7264C40.6178 44.7264 40.3286 44.7264 40.0347 44.7264C39.7408 44.7264 39.4516 44.7264 39.1601 44.7264C39.1601 44.7264 39.1601 44.7264 38.8662 44.7264C38.5747 44.7264 38.2831 44.7264 37.9892 44.7264C37.9892 44.7264 37.9892 44.7264 37.6977 44.7264C37.4061 44.7264 37.1146 44.7264 36.8231 44.7264C36.5292 44.7264 36.2376 44.7264 35.9461 45.0187C35.9461 45.0187 35.9461 45.0187 35.6522 45.0187C36.2376 45.3133 35.9461 45.3133 35.6522 45.3133C35.6522 45.6055 35.6522 45.6055 35.6522 45.3133ZM32.4405 50.5858C32.7344 50.5858 32.7344 50.5858 32.4405 50.5858C33.0236 50.2911 33.609 49.9989 33.9006 49.9989C33.9006 49.9989 33.9006 49.9989 34.1921 49.9989C34.486 49.9989 34.486 49.9989 34.7776 49.7066H35.0691H35.3606H35.6522H35.9461H36.2376H36.5292H36.8231C37.1146 49.7066 37.1146 49.7066 37.4061 49.7066H37.6977C37.9892 49.7066 37.9892 49.7066 38.2831 49.7066H38.5747C38.8662 49.7066 38.8662 49.7066 39.1601 49.7066H39.4516C39.7408 49.7066 40.0347 49.7066 40.3286 49.7066C40.6178 49.7066 40.9117 49.7066 41.2033 49.7066H41.4948C41.7887 49.7066 41.7887 49.7066 42.0802 49.7066H42.3718C42.6633 49.7066 42.6633 49.7066 42.9549 49.7066H43.2464C43.5403 49.7066 43.5403 49.7066 43.8318 49.7066H44.1234H44.4173H44.7088H45.0004H45.2919H45.5834H45.8773C46.1689 49.7066 46.1689 49.7066 46.4604 49.9989C46.4604 49.9989 46.4604 49.9989 46.752 49.9989C47.3374 50.2911 47.6289 50.2911 48.212 50.5858C48.5059 50.5858 48.5059 50.878 48.7975 50.878C48.7975 50.878 48.7975 50.878 49.089 50.878C49.3805 50.878 49.3805 51.1703 49.6744 51.1703C49.6744 51.1703 49.6744 51.1703 49.966 51.1703C50.2575 51.1703 50.2575 51.4649 50.5491 51.4649L50.843 51.7572C50.843 51.7572 51.1345 51.7572 51.1345 52.0494L51.4261 52.3417C54.6401 55.269 56.9771 59.3677 57.5602 63.7634V64.058V64.3479C57.5602 64.6425 57.5602 64.6425 57.5602 64.9348C57.5602 64.9348 57.5602 64.9348 57.5602 65.227H56.6832H47.6266C42.0779 65.227 35.9414 60.8361 32.7297 58.201L32.4358 57.9064C32.4358 57.9064 32.1443 57.9064 32.1443 57.6141C32.1443 57.6141 31.8527 57.6141 31.8527 57.3219H31.5635H31.272H30.9805H30.6889H30.3974C30.3974 57.3219 30.3974 57.3219 30.1035 57.3219C30.1035 57.3219 30.1035 57.3219 29.8119 57.3219C29.8119 57.3219 29.8119 57.3219 29.5204 57.3219H29.2288C27.7664 57.9064 26.6003 58.7855 26.3064 60.2492L25.1402 64.9348H24.5548H23.3862C23.3862 64.9348 23.3862 64.9348 23.3862 64.6425C23.3862 64.3479 23.3862 64.3479 23.3862 64.058V63.7634V63.4688C23.9693 59.0778 26.0148 54.9744 29.5204 52.0471L29.8119 51.7548C29.8119 51.7548 29.8119 51.7548 30.1035 51.4625L30.3974 51.1679C30.6889 51.1679 30.6889 50.8757 30.9805 50.8757C30.9805 50.8757 30.9805 50.8757 31.272 50.8757C31.5635 50.8757 31.5635 50.5834 31.8574 50.5834C31.8574 50.5834 31.8574 50.5834 32.149 50.5834C32.149 50.878 32.4405 50.878 32.4405 50.5858ZM11.9926 91.2901C11.1156 90.9978 10.2386 90.1187 10.5325 88.9473C10.824 84.2617 11.9926 74.8905 16.3728 64.0556C20.7553 53.2185 26.8918 48.2406 31.8574 45.8978C31.8574 46.1924 31.8574 46.1924 31.8574 46.4823V46.7746C31.8574 46.7746 31.8574 46.7746 31.5635 46.7746C31.5635 46.7746 31.5635 46.7746 31.272 46.7746C30.9805 46.7746 30.6889 47.0692 30.6889 47.0692C30.3974 47.3615 30.1035 47.3615 29.8119 47.6537C29.5204 47.6537 29.5204 47.9483 29.2288 47.9483C29.2288 47.9483 28.935 47.9483 28.935 48.2406L28.6434 48.5329L28.3519 48.8275C23.6778 52.6316 20.4638 57.6118 19.8783 63.4688C19.8783 63.4688 19.8783 63.4688 19.8783 63.761V64.0556C19.8783 64.3456 19.8783 64.3456 19.8783 64.6402V64.9324C19.8783 65.2247 19.8783 65.5193 19.8783 65.8116L19.5868 66.1038L19.2952 66.3961L19.0037 66.6907C19.0037 66.6907 19.0037 66.9806 18.7098 66.9806C18.7098 66.9806 18.7098 67.2752 18.4183 67.2752C18.4183 67.2752 18.4183 67.5675 18.1267 67.5675V67.8597V68.1544V68.4466V68.7389V71.6686C18.1267 74.009 20.1699 76.0595 22.5093 76.0595H23.3839V76.3518C24.8439 81.0374 28.3495 84.8462 32.7344 86.8944H33.0236V88.0658C33.0236 88.3604 32.7344 88.6526 32.4405 88.6526L30.9805 88.9449C30.9805 88.9449 30.9805 88.9449 30.6889 88.9449L19.8783 92.1668H19.5868L11.9926 91.2901ZM22.5116 72.5477V72.84V73.1322H21.9262C21.6346 73.1322 21.0492 72.84 21.0492 72.2554V69.3258C21.0492 69.0335 21.3407 68.449 21.9262 68.449H22.5116V71.084C22.5116 71.9608 22.5116 72.2554 22.5116 72.5477ZM35.0691 92.7537C35.0691 92.7537 35.0691 92.7537 35.0691 92.4591C35.0691 92.4591 35.0691 92.4591 35.0691 92.1668C35.0691 92.1668 35.0691 92.1668 35.0691 91.8746C35.0691 91.8746 35.0691 91.8746 35.0691 91.5823C35.0691 91.5823 35.0691 91.5823 35.0691 91.2901C35.0691 91.2901 35.0691 91.2901 35.0691 90.9978C35.0691 90.9978 35.0691 90.9978 35.0691 90.7032C35.0691 90.7032 35.0691 90.7032 35.0691 90.4109C35.0691 90.4109 35.0691 90.4109 35.0691 90.1187C35.0691 90.1187 35.0691 90.1187 35.0691 89.824C35.0691 89.824 35.0691 89.824 35.0691 89.5318H35.3606C35.6522 89.5318 35.6522 89.5318 35.9461 89.5318C36.2376 89.5318 36.2376 89.5318 36.5292 89.5318H36.8231C37.1146 89.5318 37.1146 89.5318 37.4061 89.5318H37.6977C37.9892 89.5318 37.9892 89.5318 38.2831 89.5318H38.5747C38.8662 89.5318 38.8662 89.5318 39.1601 89.5318H39.4516C39.7408 89.5318 39.7408 89.5318 40.0347 89.5318H40.3286C40.6178 89.5318 40.6178 89.5318 40.9117 89.5318H41.2033C41.4948 89.5318 41.4948 89.5318 41.7887 89.5318C41.7887 89.5318 41.7887 89.5318 42.0802 89.5318C42.0802 89.5318 42.0802 89.5318 42.0802 89.824C42.0802 89.824 42.0802 89.824 42.0802 90.1187C42.0802 90.1187 42.0802 90.1187 42.0802 90.4109C42.0802 90.4109 42.0802 90.4109 42.0802 90.7032C42.0802 90.7032 42.0802 90.7032 42.0802 90.9978C42.0802 90.9978 42.0802 90.9978 42.0802 91.2901C42.0802 91.2901 42.0802 91.2901 42.0802 91.5823C42.0802 91.5823 42.0802 91.5823 42.0802 91.8746C42.0802 91.8746 42.0802 91.8746 42.0802 92.1668C42.0802 92.1668 42.0802 92.1668 42.0802 92.4591C42.0802 92.4591 42.0802 92.4591 42.0802 92.7537C42.0802 92.7537 42.0802 92.7537 42.0802 93.046C42.0802 93.046 42.0802 93.046 42.0802 93.3382C42.0802 93.3382 42.0802 93.3382 42.3718 93.3382C42.3718 93.3382 42.3718 93.3382 42.6633 93.3382C42.6633 93.3382 42.6633 93.3382 42.9549 93.3382C42.9549 93.3382 42.9549 93.3382 43.2464 93.3382H43.5403H43.8318L45.5834 93.6329L56.394 96.8524H56.6856C60.7742 98.3161 66.8966 100.352 66.8966 104.748L67.4962 125.845H62.239V108.274C62.239 107.395 61.9451 106.518 61.362 105.639C59.025 102.417 55.2279 100.661 51.1369 100.661C47.3397 100.661 43.8342 102.417 41.4948 105.347C41.2033 105.639 40.6178 105.931 40.6178 105.931C40.6178 105.931 40.0347 105.931 39.7408 105.347C37.4061 102.417 33.9006 100.661 30.1011 100.661C26.0125 100.661 22.5093 102.712 19.876 105.639C19.2929 106.518 19.0013 107.395 19.0013 108.274V111.496C19.0013 112.667 19.876 113.252 20.7529 113.252C21.9215 113.252 22.5069 112.373 22.5069 111.496V108.274V107.982C24.2585 105.639 26.8871 104.468 29.5157 104.468C32.1443 104.468 34.7729 105.639 36.2329 107.69C37.1099 108.861 38.57 109.446 40.03 109.446C41.4901 109.446 42.9502 108.861 43.8271 107.69C45.5787 105.639 47.9181 104.468 50.5444 104.468C53.4669 104.468 56.0954 105.639 57.5555 107.982V108.274V125.845H22.8032V120.28C22.8032 119.111 21.9262 118.524 21.0492 118.524C20.1722 118.524 19.2976 119.404 19.2976 120.28V125.845H14.0381V106.81C14.0381 102.417 16.5914 99.372 20.7553 97.1447C20.7553 97.1447 25.8691 94.5143 27.6841 93.9204C29.4734 93.3359 35.0691 92.4591 35.0691 92.4591V92.7537ZM111.023 94.8019L113.652 99.1952L106.349 110.617L111.023 94.8019ZM102.85 101.213L98 101.064L97.8519 99.002L100.939 96.645L103.29 99.1504L102.85 101.213ZM102.848 112.679L100.215 119.331L98.1998 112.762L98.2492 103.57L102.756 103.374L102.848 112.679ZM95.5407 93.3382C96.7092 93.6329 97.8777 93.9251 99.0462 93.9251L95.2468 97.4369L94.9576 97.7316L93.2036 92.7537L95.5407 93.3382ZM95.5407 89.5318C95.8322 88.9473 96.1238 88.0681 96.1238 87.189C96.4153 87.189 96.4153 87.189 96.7092 87.189C96.7092 87.189 96.7092 87.189 97.0007 87.189C97.2923 87.189 97.5862 87.189 97.5862 87.189C97.5862 87.189 97.5862 87.189 97.8777 87.189C98.1693 87.189 98.4608 87.189 98.7524 87.189H99.0462C99.3378 87.189 99.6293 87.189 99.6293 87.189H99.9209C100.215 87.189 100.506 87.189 100.798 87.189C101.089 87.189 101.381 87.189 101.675 87.189C101.675 87.189 101.675 87.189 101.966 87.189C102.258 87.189 102.552 87.189 102.841 87.189C103.135 87.189 103.426 87.189 103.718 87.189C104.012 87.189 104.303 87.189 104.595 86.8967C104.595 86.8967 104.595 86.8967 104.886 86.8967C104.886 87.7759 105.178 88.3627 105.763 89.2395L104.595 89.824C101.966 90.4109 99.0462 90.4109 96.4153 89.824L95.5407 89.5318ZM101.969 93.9251C103.137 93.9251 104.306 93.6329 105.474 93.3382L107.811 92.7537L106.349 97.7316L106.057 97.4369L101.969 93.9251ZM119.205 70.4972C119.205 70.2049 119.205 70.2049 119.205 69.9126C119.205 69.6204 119.205 69.3258 119.205 69.0335V66.1062H119.788C119.788 66.1062 119.788 66.1062 120.08 66.1062C120.371 66.1062 120.665 66.3984 120.665 66.983V69.9126C120.665 70.4972 120.371 70.7918 119.788 70.7918H119.205C119.205 70.4972 119.205 70.4972 119.205 70.4972ZM81.2245 70.7918C80.6414 70.7918 80.3499 70.4972 80.3499 69.9126V66.983C80.3499 66.6931 80.6414 66.3984 80.933 66.1062C80.933 66.1062 80.933 66.1062 81.2245 66.1062C81.2245 66.1062 81.2245 66.1062 81.5184 66.1062H81.81V69.0335C81.81 69.3258 81.81 69.6204 81.81 69.9126C81.81 70.2049 81.81 70.2049 81.81 70.4972V70.7918H81.2245ZM84.147 56.7326C83.8555 56.7326 83.8555 56.7326 83.8555 56.7326C83.8555 57.0273 83.5616 57.3195 83.5616 57.6118C83.27 58.7832 82.9785 59.6623 82.9785 60.8337V59.0778C82.9785 50.2888 89.7004 44.4341 98.4632 44.4341H104.306C113.071 44.4341 120.369 50.2888 120.369 59.0778V60.8337V60.5415V60.2468C120.369 59.9546 120.369 59.6623 120.369 59.3677V59.0778C120.369 58.7832 120.369 58.4909 120.077 58.4909C120.077 58.4909 120.077 58.4909 120.077 58.1987C120.077 58.1987 120.077 58.1987 120.077 57.904C120.077 57.904 120.077 57.904 119.786 57.904C119.786 57.904 119.786 57.904 119.494 57.904C119.494 57.904 119.494 57.904 119.203 57.904C118.909 57.904 118.617 57.904 118.326 58.1987C116.28 59.3677 113.652 59.9546 110.438 59.9546C107.226 59.9546 103.72 58.7832 100.506 57.904C96.4153 56.7326 92.3267 55.269 87.9441 56.1481C85.024 56.4427 84.7301 56.4427 84.147 56.7326ZM85.901 72.2554C85.901 71.9608 85.901 71.6709 85.901 71.6709C85.901 71.3763 85.901 71.084 85.901 70.7918C85.901 70.4972 85.901 70.2049 85.901 69.9126C85.901 69.6204 85.901 69.3258 85.901 69.0335V64.3479C85.901 64.058 85.901 64.058 85.901 63.7634C85.901 63.7634 85.901 63.7634 85.901 63.4711C85.901 63.4711 85.901 63.4711 85.901 63.1789C85.901 62.8843 85.901 62.8843 85.901 62.592C85.901 62.592 85.901 62.592 85.901 62.2997V62.0075V61.7129V61.4182V61.126V60.8337V60.5415V60.2468H86.1925H86.4864C86.7779 60.2468 86.7779 60.2468 87.0695 60.2468C94.9576 58.8869 101.48 64.3856 113.727 63.6008L116.96 62.9125L116.666 66.349C116.666 66.6412 117.743 82.4563 104.306 85.1408C104.014 85.1408 104.014 85.1408 103.72 85.4331C103.72 85.4331 103.72 85.4331 103.429 85.4331C103.137 85.4331 103.137 85.4331 102.843 85.4331H102.554C102.26 85.4331 102.26 85.4331 101.969 85.4331H101.677C101.383 85.4331 101.383 85.4331 101.092 85.4331H100.8C100.509 85.4331 100.509 85.4331 100.217 85.4331H99.9232C99.6317 85.4331 99.3401 85.4331 99.3401 85.4331C99.0486 85.4331 98.7547 85.4331 98.4632 85.4331H98.1716C97.8801 85.4331 97.8801 85.4331 97.5885 85.4331H97.2946H97.0031H96.7116H96.4177H96.1261H95.8346H95.543H95.2491H94.9599H94.6661C94.6661 85.4331 94.3745 85.4331 94.3745 85.1408C90.575 81.332 87.0695 77.2333 85.901 72.2554ZM89.992 94.8019L94.9576 113.252L87.6526 99.1952L89.992 94.8019ZM122.708 125.845V107.982C122.708 106.81 121.834 106.226 120.957 106.226C119.788 106.226 119.205 107.105 119.205 107.982V125.845H81.81V120.28C81.81 119.111 80.933 118.524 80.056 118.524C78.8898 118.524 78.3044 119.404 78.3044 120.28V125.845H71.2956V106.81V105.931C71.2956 100.953 74.5073 96.5602 79.4753 95.0965L88.0593 91.9806L84.1494 98.0238C83.5639 98.903 83.8578 100.074 84.1494 100.659L99.0486 123.792C99.0486 123.792 99.0486 123.792 99.3401 123.792C99.3401 123.792 99.3401 123.792 99.6317 123.792C99.6317 123.792 99.6317 123.792 99.9232 123.792C99.9232 123.792 99.9232 123.792 100.217 123.792L115.116 100.659C115.697 99.7797 115.697 98.903 115.116 98.0238L111.766 91.5894L121.648 95.3911C127.095 96.0558 130.77 101.246 130.77 106.226L130.773 126.156L122.708 125.845Z" fill="white"/>
</svg>
