<svg width="105" height="105" viewBox="0 0 105 105" fill="none" xmlns="http://www.w3.org/2000/svg">
<path d="M69.617 48.6779C68.7139 48.6779 68.2633 49.3554 68.2633 50.0348V51.6176C68.2633 52.5229 68.9392 52.9764 69.617 52.9764C70.52 52.9764 70.9724 52.297 70.9724 51.6176V50.0348C70.9724 49.3573 70.52 48.6779 69.617 48.6779Z" fill="#6C1A3E"/>
<path d="M80.9063 48.6779C80.0032 48.6779 79.5508 49.3554 79.5508 50.0348V51.6176C79.5508 52.5229 80.2285 52.9764 80.9063 52.9764C81.8075 52.9764 82.2599 52.297 82.2599 51.6176V50.0348C82.2599 49.3573 81.5822 48.6779 80.9063 48.6779Z" fill="#6C1A3E"/>
<path d="M79.1001 56.8251C78.4224 56.3716 77.5194 56.5993 77.0669 57.051C76.8435 57.5027 76.1657 57.7304 75.0374 57.7304C74.1344 57.7304 73.4567 57.2787 73.0061 57.051C72.5536 56.3716 71.6506 56.1457 70.9747 56.8251C70.297 57.2787 70.0699 58.1821 70.7476 58.8615C71.6506 60.2184 73.2314 60.8978 75.0374 60.8978C76.8435 60.8978 78.4224 60.2184 79.3254 58.8615C80.0031 58.1821 79.776 57.2787 79.1001 56.8251Z" fill="#6C1A3E"/>
<path d="M23.5629 50.7161C22.6599 50.7161 22.2093 51.3936 22.2093 52.073V53.8835C22.2093 54.7888 22.887 55.2405 23.5629 55.2405C24.2407 55.2405 24.9166 54.5611 24.9166 53.8835V52.2989C25.1419 51.3936 24.466 50.7161 23.5629 50.7161Z" fill="#6C1A3E"/>
<path d="M32.8194 58.8615C32.1434 58.408 31.2404 58.6356 30.788 59.0874C30.5627 59.5391 29.8868 59.7667 28.982 59.7667C28.0807 59.7667 27.403 59.3132 27.1777 59.0874C26.7253 58.408 25.8223 58.1821 25.1446 58.8615C24.4686 59.3132 24.2433 60.2185 24.9192 60.8978C25.8223 62.0289 27.403 62.9342 28.982 62.9342C30.5627 62.9342 32.3688 62.2548 33.0465 60.8978C33.7224 60.2185 33.4971 59.3132 32.8194 58.8615Z" fill="#6C1A3E"/>
<path d="M59.2345 80.1355C58.3296 80.1355 57.879 80.8149 57.879 81.4925V84.2082C57.879 85.1135 58.5568 85.5652 59.2345 85.5652C59.9104 85.5652 60.5881 84.8858 60.5881 84.2082V81.4925C60.8134 80.8149 60.1357 80.1355 59.2345 80.1355Z" fill="#6C1A3E"/>
<path d="M58.1034 5C55.8467 5 53.5882 5.90525 51.7822 7.48807C49.9761 5.90525 47.9448 5 45.461 5C40.27 5 35.9801 9.29856 35.9801 14.5042C35.9801 19.0304 38.6874 23.5585 43.6568 27.1795C47.2671 29.8934 50.881 31.2522 51.1063 31.4781C51.3334 31.4781 51.5587 31.4781 51.5587 31.4781C51.784 31.4781 52.0093 31.4781 52.0093 31.4781C52.2364 31.4781 55.8467 29.8934 59.4588 27.1795C64.4263 23.3326 67.1372 19.0304 67.1372 14.5042C67.3607 9.29856 63.2962 5 58.1034 5ZM51.784 28.5365C49.3002 27.4054 38.9163 22.4256 38.9163 14.5042C38.9163 10.885 41.8507 7.9416 45.4628 7.9416C47.496 7.9416 49.3002 8.84685 50.6557 10.4315C50.881 10.6573 51.3334 10.8832 51.784 10.8832C52.2364 10.8832 52.687 10.6573 52.9123 10.4315C54.266 8.84685 56.072 7.9416 58.1034 7.9416C61.7155 7.9416 64.6516 10.8832 64.6516 14.5042C64.6516 22.1997 54.266 27.4054 51.784 28.5365Z" fill="#6C1A3E"/>
<path d="M92.4185 69.0449L83.3883 66.331C83.3883 66.331 83.3883 66.331 83.163 66.331L81.8075 66.1033C81.3569 66.1033 81.1316 65.6516 81.1316 65.4239V64.7463C84.9672 62.9359 87.6781 59.7684 89.0335 55.9197H90.1619C92.1932 55.9197 93.774 54.3351 93.774 52.2987V50.0365C93.774 48.9054 93.3216 48.0002 92.6456 47.3208V44.8327C92.6456 36.4578 85.8721 29.8952 77.7448 29.8952H73.2315C64.8772 29.8952 58.3307 36.6855 58.3307 44.8327V47.0949C57.6548 47.7725 57.2024 48.6796 57.2024 49.8088V52.0729C57.2024 54.1092 58.7831 55.6939 60.8145 55.6939H61.9428C63.0711 59.5389 66.0055 62.71 69.6194 64.5205V65.1981C69.6194 65.6516 69.3941 65.8775 68.9417 65.8775L67.8134 66.1033C67.8134 66.1033 67.8134 66.1033 67.5881 66.1033L58.5578 68.8191C55.3981 69.7243 52.9143 71.9865 51.3336 74.9299C50.6559 74.0229 49.9781 73.1176 49.0751 72.4401L52.6872 71.3071C54.7186 70.6296 56.0722 68.8191 55.8469 66.5569C55.6216 62.71 54.7186 55.2403 51.1065 46.4137C46.5913 35.5507 40.043 31.478 35.0791 29.8934C33.9508 28.0847 31.9195 26.9518 29.4357 26.9518C26.9519 26.9518 25.1459 28.0847 23.7922 29.8934C18.8265 31.478 12.5053 35.5507 7.76488 46.4137C4.15278 55.2403 3.24975 62.7082 3.02445 66.5569C2.79915 68.5932 4.15278 70.6296 6.18413 71.3071L9.79623 72.4401C7.31246 74.4764 5.95883 77.418 5.95883 80.815V96.8799C5.95883 97.787 6.63655 98.2387 7.31246 98.2387H99.6464C100.548 98.2387 101 97.5593 101 96.8799V80.1356C100.771 74.9318 97.3843 70.4037 92.4185 69.0449ZM47.945 47.5466C51.5571 55.9197 52.2348 63.1599 52.4583 66.7827C52.4583 67.4603 52.0077 68.3673 51.3318 68.5932L45.2359 70.6296C45.0106 70.6296 45.0106 70.6296 44.7853 70.6296L36.4309 68.1397C36.4309 68.1397 36.4309 68.1397 36.2056 68.1397L34.8502 67.9138C34.6267 67.9138 34.3996 67.688 34.3996 67.4603V66.7827C34.3996 66.7827 34.3996 66.7827 34.6267 66.7827C34.8502 66.7827 34.8502 66.5569 35.0773 66.5569H35.3026C35.5279 66.5569 35.5279 66.331 35.7532 66.331H35.9803C36.2056 66.331 36.2056 66.1033 36.4309 66.1033C36.4309 66.1033 36.4309 66.1033 36.6562 66.1033C36.8834 65.8775 37.1087 65.8775 37.1087 65.6516C39.5906 63.8411 41.3967 61.353 42.2997 58.4078H43.428C45.2341 58.4078 46.8148 56.825 46.8148 55.0145V52.7523V52.5246V52.2987V52.0729V51.847C46.8148 51.847 46.8148 51.6193 46.5877 51.6193C46.5877 51.6193 46.5877 51.3935 46.3642 51.3935C46.3642 51.3935 46.3642 51.1676 46.1371 51.1676L45.9118 50.9418L45.6865 50.7159L45.4594 50.4882C45.4594 50.2624 45.4594 50.0365 45.4594 49.8088V49.5848C45.4594 49.3571 45.4594 49.3571 45.4594 49.1313C45.4594 48.9054 45.4594 48.9054 45.4594 48.9054C45.4594 48.9054 45.4594 48.9054 45.4594 48.6796C45.0088 44.605 42.9774 40.984 40.0412 38.2683C39.8177 38.0424 39.5906 37.8166 39.14 37.5889L38.9147 37.363L38.6876 37.1372C38.6876 37.1372 38.4623 37.1372 38.4623 36.9095C38.237 36.9095 38.237 36.6837 38.0117 36.6837C37.7864 36.4578 37.5593 36.4578 37.334 36.2319C37.1087 36.2319 36.8834 36.0061 36.8834 36.0061C36.8834 36.0061 36.8834 36.0061 36.6562 36.0061C36.6562 36.0061 36.6562 36.0061 36.4309 36.0061V35.7802C36.4309 35.5526 36.569 34.7493 36.569 34.5234L36.4309 35.3267C39.8196 35.3249 44.3329 39.3994 47.945 47.5466ZM34.3996 55.2403C35.3026 55.2403 35.7532 54.5609 35.7532 53.8834V52.2987C35.7532 52.0729 35.7532 51.6193 35.5279 51.3935H40.0412V53.4317C40.0412 53.6557 40.0412 53.8834 40.0412 54.1092C40.0412 54.3351 40.0412 54.5609 40.0412 54.7886C40.0412 55.0145 40.0412 55.2403 40.0412 55.468C40.0412 55.6939 40.0412 55.9197 40.0412 55.9197V56.1456V56.3714V56.5991V56.825V57.0508C40.0412 57.2785 40.0412 57.2785 39.8177 57.5025C39.8177 57.5025 39.8177 57.5025 39.8177 57.7302C39.5906 57.9561 39.5906 58.4078 39.3653 58.6355C38.6876 59.9924 37.5593 61.3512 36.2056 62.4823L35.9803 62.7082C35.9803 62.7082 35.9803 62.7082 35.7532 62.7082L35.5279 62.934C35.5279 62.934 35.3026 62.934 35.3026 63.1599H35.0773L34.8502 63.3857C34.8502 63.3857 34.8502 63.3857 34.6267 63.3857C34.3996 63.3857 34.3996 63.6134 34.1743 63.6134C34.1743 63.6134 34.1743 63.6134 33.949 63.6134C33.7219 63.6134 33.7219 63.8393 33.4966 63.8393C33.2713 63.8393 33.2713 63.8393 33.046 64.0651C33.046 64.0651 33.046 64.0651 32.8188 64.0651H32.5935H32.3682H32.1429C31.9176 64.0651 31.9176 64.0651 31.6905 64.0651H31.4652H31.2399H31.0128H30.7875H30.5622H30.3369C30.1116 64.0651 30.1116 64.0651 29.8863 64.0651H29.6592C29.4339 64.0651 29.2086 64.0651 29.2086 64.0651C28.9814 64.0651 28.758 64.0651 28.758 64.0651C28.758 64.0651 28.758 64.0651 28.5308 64.0651C28.3037 64.0651 28.3037 64.0651 28.0802 64.0651H27.8531C27.6278 64.0651 27.6278 64.0651 27.4025 64.0651H27.1772C26.9501 64.0651 26.9501 64.0651 26.7248 64.0651C26.7248 64.0651 26.7248 64.0651 26.4995 64.0651C26.2742 64.0651 26.2742 64.0651 26.0489 64.0651C26.0489 64.0651 26.0489 64.0651 25.8218 64.0651C25.5965 64.0651 25.5965 64.0651 25.3712 63.8393C24.6934 63.6134 24.0157 63.3857 23.3398 62.934C23.1127 62.934 23.1127 62.7082 22.8892 62.7082L22.6621 62.4823C22.6621 62.4823 22.4368 62.4823 22.4368 62.2546C20.6307 60.8977 19.2771 59.313 18.3741 57.2785C18.3741 57.0508 18.1488 56.825 18.1488 56.825V56.5991V56.3714V56.1456V55.9197C18.1488 55.6939 18.1488 55.468 18.1488 55.468C18.1488 55.2403 18.1488 55.0145 18.1488 54.7886C18.1488 54.5609 18.1488 54.3351 18.1488 54.3351C18.1488 54.1092 18.1488 53.8834 18.1488 53.6557V51.3935C18.1488 51.3935 18.1488 51.3935 18.3741 51.3935C18.3741 51.3935 18.5994 51.3935 18.5994 51.1676C18.5994 51.1676 18.8247 51.1676 18.8247 50.9418C18.8247 50.9418 18.8247 50.9418 19.05 50.7159C19.05 50.7159 19.2771 50.4882 19.2771 50.2624C19.2771 50.2624 19.2771 50.2624 19.2771 50.0365V49.8088V49.5848L20.4054 45.5103C20.4054 45.2844 20.6307 45.2844 20.856 45.0586C20.856 45.0586 21.0831 45.0586 21.3084 45.0586C26.4995 49.3571 30.564 50.7159 33.2731 51.1676C33.0478 51.3935 32.8207 51.847 32.8207 52.0729V53.8834C33.046 54.5609 33.7219 55.2403 34.3996 55.2403ZM42.9792 54.7886V54.5609C42.9792 54.3351 42.9792 54.3351 42.9792 54.1092C42.9792 53.8834 42.9792 53.6557 42.9792 53.4317V51.3935H43.4298C43.657 51.3935 44.1076 51.6193 44.1076 52.0729V54.3351C44.1076 54.5609 43.8823 55.0145 43.4298 55.0145H42.9792V54.7886ZM25.1422 33.0627V32.835V32.6091V32.3833C25.8199 31.0245 27.1754 30.1211 28.7561 30.1211C30.3351 30.1211 31.6887 31.0245 32.3664 32.3833V32.6091V32.835V33.0627C32.1411 33.0627 31.9158 33.0627 31.9158 32.835C31.9158 32.835 31.9158 32.835 31.6887 32.835C31.4634 32.835 31.2381 32.835 31.011 32.6091C30.7857 32.6091 30.5604 32.6091 30.3351 32.6091C30.3351 32.6091 30.3351 32.6091 30.1098 32.6091C29.8845 32.6091 29.6573 32.6091 29.432 32.6091C29.432 32.6091 29.432 32.6091 29.2067 32.6091C28.9796 32.6091 28.7561 32.6091 28.529 32.6091C28.3019 32.6091 28.0784 32.6091 27.8531 32.6091C27.8531 32.6091 27.8531 32.6091 27.626 32.6091C27.4007 32.6091 27.1754 32.6091 26.9483 32.6091C26.9483 32.6091 26.9483 32.6091 26.723 32.6091C26.4977 32.6091 26.2724 32.6091 26.0471 32.6091C25.8199 32.6091 25.5946 32.6091 25.3693 32.835C25.3693 32.835 25.3693 32.835 25.1422 32.835C25.5946 33.0627 25.3693 33.0627 25.1422 33.0627C25.1422 33.2885 25.1422 33.2885 25.1422 33.0627ZM22.6603 37.1372C22.8874 37.1372 22.8874 37.1372 22.6603 37.1372C23.1109 36.9095 23.5633 36.6837 23.7886 36.6837C23.7886 36.6837 23.7886 36.6837 24.0139 36.6837C24.241 36.6837 24.241 36.6837 24.4663 36.4578H24.6916H24.9169H25.1422H25.3693H25.5946H25.8199H26.0471C26.2724 36.4578 26.2724 36.4578 26.4977 36.4578H26.723C26.9483 36.4578 26.9483 36.4578 27.1754 36.4578H27.4007C27.626 36.4578 27.626 36.4578 27.8531 36.4578H28.0784C28.3019 36.4578 28.529 36.4578 28.7561 36.4578C28.9796 36.4578 29.2067 36.4578 29.432 36.4578H29.6573C29.8845 36.4578 29.8845 36.4578 30.1098 36.4578H30.3351C30.5604 36.4578 30.5604 36.4578 30.7857 36.4578H31.011C31.2381 36.4578 31.2381 36.4578 31.4634 36.4578H31.6887H31.9158H32.1411H32.3664H32.5917H32.817H33.0441C33.2694 36.4578 33.2694 36.4578 33.4947 36.6837C33.4947 36.6837 33.4947 36.6837 33.7201 36.6837C34.1725 36.9095 34.3978 36.9095 34.8484 37.1372C35.0755 37.1372 35.0755 37.363 35.3008 37.363C35.3008 37.363 35.3008 37.363 35.5261 37.363C35.7514 37.363 35.7514 37.5889 35.9785 37.5889C35.9785 37.5889 35.9785 37.5889 36.2038 37.5889C36.4291 37.5889 36.4291 37.8166 36.6544 37.8166L36.8815 38.0424C36.8815 38.0424 37.1069 38.0424 37.1069 38.2683L37.3322 38.4942C39.8159 40.7564 41.622 43.9238 42.0726 47.3208V47.5485V47.7725C42.0726 48.0002 42.0726 48.0002 42.0726 48.226C42.0726 48.226 42.0726 48.226 42.0726 48.4519H41.3949H34.396C30.1079 48.4519 25.3657 45.0586 22.8837 43.0222L22.6566 42.7945C22.6566 42.7945 22.4313 42.7945 22.4313 42.5687C22.4313 42.5687 22.206 42.5687 22.206 42.3428H21.9825H21.7572H21.5319H21.3066H21.0813C21.0813 42.3428 21.0813 42.3428 20.8542 42.3428C20.8542 42.3428 20.8542 42.3428 20.6289 42.3428C20.6289 42.3428 20.6289 42.3428 20.4036 42.3428H20.1783C19.0482 42.7945 18.1469 43.4739 17.9198 44.605L17.0186 48.226H16.5662H15.6632C15.6632 48.226 15.6632 48.226 15.6632 48.0002C15.6632 47.7725 15.6632 47.7725 15.6632 47.5485V47.3208V47.0931C16.1138 43.6998 17.6945 40.5287 20.4036 38.2665L20.6289 38.0406C20.6289 38.0406 20.6289 38.0406 20.8542 37.8148L21.0813 37.5871C21.3066 37.5871 21.3066 37.3612 21.5319 37.3612C21.5319 37.3612 21.5319 37.3612 21.7572 37.3612C21.9825 37.3612 21.9825 37.1354 22.2097 37.1354C22.2097 37.1354 22.2097 37.1354 22.435 37.1354C22.435 37.363 22.6603 37.363 22.6603 37.1372ZM6.85822 68.5932C6.1805 68.3673 5.50277 67.6879 5.72989 66.7827C5.95519 63.1617 6.85822 55.9197 10.2432 47.5466C13.63 39.1717 18.3723 35.3249 22.2097 33.5144C22.2097 33.7421 22.2097 33.7421 22.2097 33.9661V34.1919C22.2097 34.1919 22.2097 34.1919 21.9825 34.1919C21.9825 34.1919 21.9825 34.1919 21.7572 34.1919C21.5319 34.1919 21.3066 34.4196 21.3066 34.4196C21.0813 34.6455 20.8542 34.6455 20.6289 34.8713C20.4036 34.8713 20.4036 35.099 20.1783 35.099C20.1783 35.099 19.9512 35.099 19.9512 35.3249L19.7259 35.5507L19.5006 35.7784C15.8885 38.7182 13.4047 42.5669 12.9523 47.0931C12.9523 47.0931 12.9523 47.0931 12.9523 47.319V47.5466C12.9523 47.7707 12.9523 47.7707 12.9523 47.9984V48.2242C12.9523 48.4501 12.9523 48.6777 12.9523 48.9036L12.727 49.1295L12.5017 49.3553L12.2764 49.583C12.2764 49.583 12.2764 49.807 12.0493 49.807C12.0493 49.807 12.0493 50.0347 11.824 50.0347C11.824 50.0347 11.824 50.2606 11.5986 50.2606V50.4864V50.7141V50.94V51.1658V53.4298C11.5986 55.2385 13.1776 56.8232 14.9854 56.8232H15.6614V57.049C16.7897 60.67 19.4988 63.6134 22.8874 65.1962H23.1109V66.1015C23.1109 66.3292 22.8874 66.555 22.6603 66.555L21.5319 66.7809C21.5319 66.7809 21.5319 66.7809 21.3066 66.7809L12.9523 69.2708H12.727L6.85822 68.5932ZM14.9873 54.1092V54.3351V54.5609H14.5348C14.3095 54.5609 13.8571 54.3351 13.8571 53.8834V51.6193C13.8571 51.3935 14.0824 50.9418 14.5348 50.9418H14.9873V52.9781C14.9873 53.6557 14.9873 53.8834 14.9873 54.1092ZM24.6916 69.7243C24.6916 69.7243 24.6916 69.7243 24.6916 69.4966C24.6916 69.4966 24.6916 69.4966 24.6916 69.2708C24.6916 69.2708 24.6916 69.2708 24.6916 69.0449C24.6916 69.0449 24.6916 69.0449 24.6916 68.8191C24.6916 68.8191 24.6916 68.8191 24.6916 68.5932C24.6916 68.5932 24.6916 68.5932 24.6916 68.3673C24.6916 68.3673 24.6916 68.3673 24.6916 68.1397C24.6916 68.1397 24.6916 68.1397 24.6916 67.9138C24.6916 67.9138 24.6916 67.9138 24.6916 67.688C24.6916 67.688 24.6916 67.688 24.6916 67.4603C24.6916 67.4603 24.6916 67.4603 24.6916 67.2344H24.9169C25.1422 67.2344 25.1422 67.2344 25.3693 67.2344C25.5946 67.2344 25.5946 67.2344 25.8199 67.2344H26.0471C26.2724 67.2344 26.2724 67.2344 26.4977 67.2344H26.723C26.9483 67.2344 26.9483 67.2344 27.1754 67.2344H27.4007C27.626 67.2344 27.626 67.2344 27.8531 67.2344H28.0784C28.3019 67.2344 28.3019 67.2344 28.529 67.2344H28.7561C28.9796 67.2344 28.9796 67.2344 29.2067 67.2344H29.432C29.6573 67.2344 29.6573 67.2344 29.8845 67.2344C29.8845 67.2344 29.8845 67.2344 30.1098 67.2344C30.1098 67.2344 30.1098 67.2344 30.1098 67.4603C30.1098 67.4603 30.1098 67.4603 30.1098 67.688C30.1098 67.688 30.1098 67.688 30.1098 67.9138C30.1098 67.9138 30.1098 67.9138 30.1098 68.1397C30.1098 68.1397 30.1098 68.1397 30.1098 68.3673C30.1098 68.3673 30.1098 68.3673 30.1098 68.5932C30.1098 68.5932 30.1098 68.5932 30.1098 68.8191C30.1098 68.8191 30.1098 68.8191 30.1098 69.0449C30.1098 69.0449 30.1098 69.0449 30.1098 69.2708C30.1098 69.2708 30.1098 69.2708 30.1098 69.4966C30.1098 69.4966 30.1098 69.4966 30.1098 69.7243C30.1098 69.7243 30.1098 69.7243 30.1098 69.9502C30.1098 69.9502 30.1098 69.9502 30.1098 70.176C30.1098 70.176 30.1098 70.176 30.3351 70.176C30.3351 70.176 30.3351 70.176 30.5604 70.176C30.5604 70.176 30.5604 70.176 30.7857 70.176C30.7857 70.176 30.7857 70.176 31.011 70.176H31.2381H31.4634L32.817 70.4037L41.1714 72.8918H41.3967C44.5564 74.0229 49.2877 75.5966 49.2877 78.9935L49.751 95.2971H45.6883V81.7184C45.6883 81.039 45.4612 80.3614 45.0106 79.682C43.2045 77.1921 40.2702 75.8352 37.1087 75.8352C34.1743 75.8352 31.4652 77.1921 29.6573 79.4562C29.432 79.682 28.9796 79.9079 28.9796 79.9079C28.9796 79.9079 28.529 79.9079 28.3019 79.4562C26.4977 77.1921 23.7886 75.8352 20.8524 75.8352C17.6927 75.8352 14.9855 77.4198 12.9505 79.682C12.4999 80.3614 12.2746 81.039 12.2746 81.7184V84.2083C12.2746 85.1135 12.9505 85.5652 13.6282 85.5652C14.5312 85.5652 14.9836 84.8858 14.9836 84.2083V81.7184V81.4925C16.3373 79.682 18.3686 78.7768 20.4 78.7768C22.4313 78.7768 24.4627 79.682 25.591 81.2667C26.2687 82.1719 27.3971 82.6236 28.5254 82.6236C29.6537 82.6236 30.782 82.1719 31.4598 81.2667C32.8134 79.682 34.6213 78.7768 36.6508 78.7768C38.9093 78.7768 40.9406 79.682 42.0689 81.4925V81.7184V95.2971H15.2126V90.9967C15.2126 90.0933 14.5348 89.6398 13.8571 89.6398C13.1794 89.6398 12.5035 90.3192 12.5035 90.9967V95.2971H8.43897V80.5873C8.43897 77.1922 10.4122 74.8389 13.63 73.1176C13.63 73.1176 17.5819 71.0849 18.9846 70.6259C20.3673 70.1742 24.6916 69.4966 24.6916 69.4966V69.7243ZM83.3883 71.3071L85.4196 74.7023L79.7762 83.5289L83.3883 71.3071ZM77.0725 76.2614L73.3242 76.1467L73.2097 74.5529L75.5954 72.7315L77.4123 74.6677L77.0725 76.2614ZM77.0707 85.1226L75.0357 90.2627L73.4786 85.1864L73.5168 78.0828L76.9999 77.9316L77.0707 85.1226ZM71.4236 70.176C72.3267 70.4037 73.2297 70.6296 74.1327 70.6296L71.1965 73.3435L70.973 73.5712L69.6176 69.7243L71.4236 70.176ZM71.4236 67.2344C71.6489 66.7827 71.8742 66.1033 71.8742 65.4239C72.0995 65.4239 72.0996 65.4239 72.3267 65.4239C72.3267 65.4239 72.3267 65.4239 72.552 65.4239C72.7773 65.4239 73.0044 65.4239 73.0044 65.4239C73.0044 65.4239 73.0044 65.4239 73.2297 65.4239C73.455 65.4239 73.6803 65.4239 73.9056 65.4239H74.1327C74.358 65.4239 74.5833 65.4239 74.5833 65.4239H74.8086C75.0357 65.4239 75.261 65.4239 75.4863 65.4239C75.7116 65.4239 75.937 65.4239 76.1641 65.4239C76.1641 65.4239 76.1641 65.4239 76.3894 65.4239C76.6147 65.4239 76.8418 65.4239 77.0653 65.4239C77.2924 65.4239 77.5177 65.4239 77.743 65.4239C77.9701 65.4239 78.1954 65.4239 78.4207 65.1981C78.4207 65.1981 78.4207 65.1981 78.646 65.1981C78.646 65.8775 78.8713 66.331 79.3238 67.0086L78.4207 67.4603C76.3894 67.9138 74.1327 67.9138 72.0995 67.4603L71.4236 67.2344ZM76.3912 70.6296C77.2942 70.6296 78.1972 70.4037 79.1003 70.176L80.9063 69.7243L79.7762 73.5712L79.5509 73.3435L76.3912 70.6296ZM89.7113 52.5246C89.7113 52.2987 89.7113 52.2987 89.7113 52.0729C89.7113 51.847 89.7113 51.6193 89.7113 51.3935V49.1313H90.1619C90.1619 49.1313 90.1619 49.1313 90.3872 49.1313C90.6125 49.1313 90.8396 49.3571 90.8396 49.8088V52.0729C90.8396 52.5246 90.6125 52.7523 90.1619 52.7523H89.7113C89.7113 52.5246 89.7113 52.5246 89.7113 52.5246ZM60.3602 52.7523C59.9096 52.7523 59.6843 52.5246 59.6843 52.0729V49.8088C59.6843 49.5848 59.9096 49.3571 60.1349 49.1313C60.1349 49.1313 60.1349 49.1313 60.3602 49.1313C60.3602 49.1313 60.3602 49.1313 60.5873 49.1313H60.8126V51.3935C60.8126 51.6193 60.8126 51.847 60.8126 52.0729C60.8126 52.2987 60.8126 52.2987 60.8126 52.5246V52.7523H60.3602ZM62.6187 41.8875C62.3934 41.8875 62.3934 41.8875 62.3934 41.8875C62.3934 42.1151 62.1663 42.341 62.1663 42.5669C61.941 43.4721 61.7157 44.1515 61.7157 45.0567V43.6998C61.7157 36.9077 66.9103 32.3833 73.6821 32.3833H78.1972C84.9708 32.3833 90.6107 36.9077 90.6107 43.6998V45.0567V44.8309V44.6032C90.6107 44.3774 90.6107 44.1515 90.6107 43.9238V43.6998C90.6107 43.4721 90.6107 43.2462 90.3854 43.2462C90.3854 43.2462 90.3854 43.2463 90.3854 43.0204C90.3854 43.0204 90.3854 43.0204 90.3854 42.7927C90.3854 42.7927 90.3854 42.7927 90.1601 42.7927C90.1601 42.7927 90.1601 42.7927 89.9348 42.7927C89.9348 42.7927 89.9348 42.7927 89.7094 42.7927C89.4823 42.7927 89.257 42.7927 89.0317 43.0204C87.451 43.9238 85.4196 44.3774 82.9359 44.3774C80.4539 44.3774 77.7448 43.4721 75.261 42.7927C72.0995 41.8875 68.9399 40.7564 65.5531 41.4358C63.2964 41.6634 63.0693 41.6634 62.6187 41.8875ZM63.9741 53.8834C63.9741 53.6557 63.9741 53.4317 63.9741 53.4317C63.9741 53.204 63.9741 52.9781 63.9741 52.7523C63.9741 52.5246 63.9741 52.2987 63.9741 52.0729C63.9741 51.847 63.9741 51.6193 63.9741 51.3935V47.7725C63.9741 47.5485 63.9741 47.5485 63.9741 47.3208C63.9741 47.3208 63.9741 47.3208 63.9741 47.0949C63.9741 47.0949 63.9741 47.0949 63.9741 46.8691C63.9741 46.6414 63.9741 46.6414 63.9741 46.4155C63.9741 46.4155 63.9741 46.4155 63.9741 46.1897V45.9638V45.7361V45.5085V45.2826V45.0567V44.8309V44.6032H64.1994H64.4266C64.6519 44.6032 64.6519 44.6032 64.8772 44.6032C70.973 43.5523 76.0133 47.8016 85.4778 47.1951L87.9761 46.6632L87.749 49.3189C87.749 49.5447 88.5811 61.7665 78.1972 63.8411C77.9719 63.8411 77.9719 63.8411 77.7448 64.067C77.7448 64.067 77.7448 64.067 77.5195 64.067C77.2942 64.067 77.2942 64.067 77.0671 64.067H76.8436C76.6165 64.067 76.6165 64.067 76.3912 64.067H76.1659C75.9388 64.067 75.9388 64.067 75.7135 64.067H75.4882C75.2629 64.067 75.2629 64.067 75.0376 64.067H74.8104C74.5851 64.067 74.3598 64.067 74.3598 64.067C74.1345 64.067 73.9074 64.067 73.6821 64.067H73.4568C73.2315 64.067 73.2315 64.067 73.0062 64.067H72.7791H72.5538H72.3285H72.1014H71.8761H71.6508H71.4255H71.1983H70.9749H70.7477C70.7477 64.067 70.5224 64.067 70.5224 63.8411C67.5862 60.8977 64.8772 57.7302 63.9741 53.8834ZM67.1356 71.3071L70.973 85.5652L65.3278 74.7023L67.1356 71.3071ZM92.4185 95.2971V81.4925C92.4185 80.5873 91.7426 80.1356 91.0649 80.1356C90.1619 80.1356 89.7113 80.815 89.7113 81.4925V95.2971H60.8126V90.9967C60.8126 90.0933 60.1349 89.6398 59.4572 89.6398C58.556 89.6398 58.1036 90.3192 58.1036 90.9967V95.2971H52.6872V80.5873V79.9079C52.6872 76.061 55.1692 72.6659 59.0084 71.5348L65.6421 69.1269L62.6205 73.797C62.1681 74.4764 62.3952 75.3816 62.6205 75.8334L74.1345 93.7107C74.1345 93.7107 74.1345 93.7107 74.3598 93.7107C74.3598 93.7107 74.3598 93.7107 74.5851 93.7107C74.5851 93.7107 74.5851 93.7107 74.8104 93.7107C74.8104 93.7107 74.8104 93.7107 75.0376 93.7107L86.5516 75.8334C87.0004 75.154 87.0004 74.4764 86.5516 73.797L83.9624 68.8245L91.5991 71.7625C95.809 72.2761 98.6489 76.2869 98.6489 80.1356L98.6507 95.5375L92.4185 95.2971Z" fill="#6C1A3E"/>
</svg>
