<svg width="160" height="160" viewBox="0 0 160 160" fill="none" xmlns="http://www.w3.org/2000/svg">
<path d="M94.3314 148.673C92.8471 147.93 90.9909 148.673 90.2506 150.514C89.8786 151.993 88.3944 152.729 86.9101 152.729H75.7694C74.2852 152.729 73.1729 151.993 72.429 150.514C71.6921 149.039 70.2044 148.299 68.3482 148.673C66.8639 149.409 66.1165 150.884 66.492 152.729C67.9762 156.42 71.3167 158.635 75.401 158.635H86.5382C90.6225 158.635 93.963 156.416 95.4507 152.729C96.563 151.25 95.8192 149.409 94.3314 148.673Z" fill="white"/>
<path d="M129.975 133.168C129.228 129.111 126.631 125.42 122.919 123.205C123.659 122.466 124.403 122.1 124.775 121.36C127.744 118.039 128.856 113.609 128.116 109.183C127.003 102.168 124.031 95.5266 119.203 89.9943C115.866 85.9341 111.41 82.6133 106.582 80.3948C112.519 74.1196 115.866 66.0025 115.866 56.7763C115.866 40.905 105.097 27.622 90.6197 23.5618C92.4759 21.3433 93.5917 18.3958 93.5917 15.075C93.5917 8.79975 88.395 4 82.458 4C79.8579 4 77.6298 4.7395 75.7736 6.215C73.9209 7.6905 72.8051 10.2753 72.8051 12.4903C72.8051 14.332 74.2893 15.4447 75.7736 15.4447C77.6298 15.4447 78.7491 13.9692 78.7491 12.4903C78.7491 11.7508 79.1141 11.0113 79.486 10.645C80.2334 10.2787 80.9738 9.9055 82.0896 9.9055C85.0581 9.9055 87.2827 12.124 87.2827 15.075C87.2827 16.9168 86.5388 18.7655 85.0546 20.2375C83.5703 21.7165 81.7141 22.4525 79.8579 22.4525C79.8579 22.4525 79.8579 22.4525 79.486 22.4525C60.5556 22.8188 45.3376 38.3238 45.3376 57.1425C45.3376 66.3723 49.05 74.4928 54.6186 80.7611C49.7904 82.9761 45.7095 86.2968 41.9936 90.3536C37.1689 95.8928 34.1969 102.534 33.0846 109.549C32.3442 113.979 33.8285 118.406 36.4251 121.723C37.1689 122.462 37.5374 122.829 38.2813 123.568C34.5654 125.783 31.9688 129.47 31.2249 133.53C30.4845 137.96 31.5968 142.024 34.1969 145.708L40.8778 153.828C43.4814 157.152 47.5587 158.994 51.6431 158.994C53.8712 158.994 56.0993 158.258 58.324 157.152C64.2645 153.828 66.4926 146.82 64.2645 140.542L61.2925 130.586C60.9205 129.847 60.5521 129.477 60.5521 128.745H82.8264C84.6791 128.745 85.795 127.266 85.795 125.787C85.795 124.311 84.3107 122.832 82.8264 122.832H54.6116V116.557C54.6116 115.821 55.3554 115.081 56.0958 115.081H106.213C106.957 115.081 107.701 115.821 107.701 116.557V123.202C104.729 124.677 102.129 127.632 101.016 130.583L96.9356 140.179C94.3356 146.451 96.9356 153.465 102.876 156.79C105.101 157.888 107.329 158.631 109.557 158.631C113.638 158.631 117.719 156.79 120.319 153.465L127.003 145.348C129.603 142.028 130.716 137.598 129.975 133.168ZM52.3834 56.7763C52.3834 40.905 65.3768 27.9883 81.3422 27.9883C97.3041 27.9883 110.297 40.905 110.297 56.7763C110.297 72.6441 97.3041 85.5608 81.3422 85.5608C65.3768 85.5608 52.3834 72.6441 52.3834 56.7763ZM55.7239 132.798L59.8082 142.397C61.2925 145.715 59.8082 149.775 56.4678 151.624C53.1273 153.472 49.043 152.729 46.8148 149.778L40.5024 141.661C39.0181 139.816 38.2742 136.865 38.6497 134.647C39.0181 132.065 40.8743 129.85 43.106 128.748C45.3341 127.639 47.9307 127.269 50.5272 128.005C52.7554 128.371 54.9835 130.586 55.7239 132.798ZM106.585 102.538C104.729 102.538 103.613 104.013 103.613 105.489V108.443H59.4398V105.489C59.4398 103.644 57.9485 102.538 56.4678 102.538C54.6116 102.538 53.4993 104.013 53.4993 105.489V109.183C50.8957 110.289 49.0395 112.877 49.0395 116.194V120.628C46.8113 120.258 44.5832 119.149 43.1025 117.673C41.2463 115.828 40.5024 112.877 40.8708 110.292C42.727 98.8508 50.1553 89.2583 61.289 85.198C66.8611 89.2583 73.9139 91.8396 81.7071 91.8396C89.5003 91.8396 96.5567 89.2583 102.122 85.198C112.887 89.2583 120.687 98.8508 122.54 110.292C122.912 112.877 122.171 115.458 120.312 117.673C118.828 119.515 116.599 120.628 114.375 120.628V116.194C114.375 113.243 112.519 110.292 109.918 109.183V105.489C109.557 104.013 108.069 102.538 106.585 102.538ZM122.179 141.658L115.498 149.775C113.269 152.729 109.185 153.469 105.845 151.62C102.504 149.771 101.388 145.715 102.504 142.394L106.589 132.794C107.701 130.583 109.561 128.741 111.785 127.632C112.894 127.266 113.638 127.266 114.757 127.266C116.241 127.266 117.722 127.632 119.21 128.371C121.442 129.474 122.926 131.692 123.666 134.273C124.407 136.862 123.663 139.443 122.179 141.658Z" fill="white"/>
<path d="M96.9349 123.572C96.191 122.832 95.4506 122.832 94.7068 122.832C93.9629 122.832 93.2225 123.202 92.4786 123.572C91.7347 124.311 91.7347 125.047 91.7347 125.787C91.7347 126.526 92.1067 127.266 92.4786 128.002C93.2225 128.745 93.9629 128.745 94.7068 128.745C95.4506 128.745 96.191 128.375 96.9349 128.002C97.6788 127.266 97.6788 126.526 97.6788 125.787C97.6788 125.047 97.6753 123.945 96.9349 123.572Z" fill="white"/>
<path d="M89.8786 67.1087C88.3943 66.0029 86.5382 66.3727 85.4258 67.4749C84.31 68.5807 82.8258 69.3202 81.3415 69.3202C79.8537 69.3202 78.3695 68.5807 77.2572 67.4749C76.1414 65.9994 74.2852 65.9994 72.8009 67.1087C71.3131 68.2144 71.3131 70.0632 72.429 71.5421C74.6571 74.1199 77.9975 75.5954 81.3415 75.5954C84.6784 75.5954 88.0224 74.1199 90.2505 71.5421C91.3629 70.0597 90.9909 68.2144 89.8786 67.1087Z" fill="white"/>
<path d="M73.5449 54.9311C70.9448 52.3464 66.1166 52.3464 63.5236 54.9311C62.4077 56.0369 62.4077 57.8856 63.5236 59.3611C64.6324 60.4669 66.4921 60.4669 67.9763 59.3611C68.3483 58.9949 69.0886 58.9949 69.4641 59.3611C70.208 60.1006 70.9483 60.1006 71.6957 60.1006C72.4326 60.1006 73.1765 59.7343 73.9204 59.3611C74.6572 57.8821 74.6572 56.0369 73.5449 54.9311Z" fill="white"/>
<path d="M99.1595 54.9311C96.5629 52.3464 91.7347 52.3464 89.1346 54.9311C88.0258 56.0369 88.0258 57.8856 89.1346 59.3611C89.8785 60.1006 90.6224 60.1006 91.3627 60.1006C92.1101 60.1006 92.8505 59.7343 93.5944 59.3611C93.9628 58.9949 94.7067 58.9949 95.0786 59.3611C96.1909 60.4669 98.0507 60.4669 99.5349 59.3611C100.275 57.8821 100.275 56.0369 99.1595 54.9311Z" fill="white"/>
</svg>
