<svg width="105" height="105" viewBox="0 0 105 105" fill="none" xmlns="http://www.w3.org/2000/svg">
<path d="M67.8145 61.4326C67.8145 62.9089 68.9975 63.647 70.0326 63.647C71.2156 63.647 72.2507 63.0565 72.2507 61.4326C72.2507 59.0705 72.3986 56.7083 72.3986 54.3462C72.8422 41.3546 73.2859 28.0677 63.5262 18.4716C55.8368 10.9424 43.4154 8.72787 33.2121 13.1568C23.0088 17.5858 16.5024 27.4772 16.0587 38.6972C16.0587 40.3212 17.2417 40.7641 18.129 40.9117C19.312 40.9117 20.495 40.3212 20.495 38.6972C20.7907 28.3629 27.2971 19.6527 36.9089 16.4047C39.4228 15.8142 41.9366 15.3713 44.3026 15.3713C51.992 15.3713 59.6815 19.3574 64.2656 26.2961C68.1103 32.0538 67.9624 38.5496 67.9624 44.7501L67.8145 61.4326Z" fill="#00335E" stroke="white" stroke-width="0.536165"/>
<path d="M71.4213 74.01C72.1597 74.01 72.8981 73.7172 73.1935 73.1318C73.6365 72.3999 73.6365 71.3754 73.1935 70.6435C72.8981 70.2044 72.455 69.619 71.2736 69.4726C68.7629 69.3262 66.843 68.5944 65.5139 67.1307C63.0033 64.3498 63.2986 59.8124 63.594 55.7141C63.594 54.5432 63.7417 53.5186 63.7417 52.4941C63.7417 50.8841 63.8894 49.274 63.8894 47.5176C64.1847 41.8093 64.4801 35.2228 62.1172 30.2464C59.3112 24.5381 54.5853 20.7325 48.6779 19.708C42.4752 18.537 36.1248 20.4398 31.2512 24.8308C27.4114 28.3436 25.1962 33.4664 24.9008 39.1747C24.6054 44.1512 21.6517 47.664 17.3689 47.8104C16.1874 47.8104 15.7444 48.5422 15.449 48.9813C15.006 49.7131 15.006 50.7377 15.449 51.4695C15.7444 52.055 16.4828 52.3477 17.2212 52.3477C21.9471 52.2014 25.6392 49.8595 27.7068 45.9076C28.7406 43.8585 29.0359 41.663 29.3313 39.4675C29.479 38.2965 29.6267 37.1256 29.7744 35.9547C31.2512 28.9291 38.1923 23.5135 45.2812 23.5135C46.1673 23.5135 46.9057 23.5135 47.7918 23.8062C54.5853 25.1235 59.6065 31.4173 59.4588 38.4429C59.4588 45.9076 59.3112 53.3723 59.1635 60.837C59.0158 68.8871 63.4463 73.5709 71.4213 74.01Z" fill="#00335E" stroke="white" stroke-width="0.536165"/>
<path d="M19.5204 78.7204C28.6948 78.7204 44.972 76.3822 52.0748 61.4759C55.3302 54.4612 55.6262 47.4464 55.6262 39.4087C55.6262 35.7552 54.4424 32.5402 52.2227 30.4942C50.2991 28.5944 47.6355 27.7175 44.3801 27.8637C38.1652 28.156 34.4658 34.0016 33.1341 39.4087C32.6901 41.0163 32.5422 42.6238 32.3942 44.2314C31.9503 48.3233 31.3584 52.7075 26.9191 55.6303C24.5516 57.2378 21.1482 58.1147 18.1887 57.8224C17.4488 57.8224 16.8569 57.9685 16.413 58.5531C15.9691 59.1376 15.9691 60.1606 16.265 61.0375C16.413 61.4759 17.0049 62.2066 18.1887 62.3527C24.9955 62.9373 31.9503 59.1376 35.0577 52.9998C36.5375 50.077 36.9814 46.7157 37.2773 44.2314C37.2773 43.6468 37.2773 43.2084 37.2773 42.6238C37.2773 42.4777 37.2773 42.1854 37.2773 41.8931C37.2773 41.8931 37.2773 41.8931 37.2773 41.747C37.2773 41.747 37.2773 41.747 37.2773 41.6008C37.5733 40.4317 37.8692 39.2626 38.1652 38.3858C39.349 35.0245 42.4564 32.5402 45.5639 32.5402C45.8599 32.5402 46.0078 32.5402 46.3038 32.5402C48.9673 32.8324 50.595 35.1707 50.891 38.5319C51.3349 45.8389 50.595 51.8306 48.8193 57.0917C43.9362 72.1441 28.3989 74.3362 19.6684 74.3362C18.1887 74.3362 17.4488 75.5053 17.4488 76.6744C17.4488 77.6974 18.0407 78.7204 19.5204 78.7204Z" fill="#00335E" stroke="white" stroke-width="0.536165"/>
<path d="M17.3554 66.6251C15.8629 66.6251 15.1167 67.8015 15.1167 68.978C15.1167 70.0074 15.8629 71.1838 17.2061 71.1838C24.519 71.1838 37.8017 69.2721 43.9206 56.9193C46.3085 52.0664 47.5025 46.3311 47.0547 41.3312C46.9055 40.1547 46.1593 39.5665 45.7115 39.4195C44.8161 38.9783 43.7714 39.1253 43.1744 39.5665C42.7267 39.8606 42.4282 40.4489 42.4282 41.1841C42.7267 45.0076 42.1297 49.2723 40.488 53.537C37.5032 61.7722 28.9963 66.6251 17.3554 66.6251Z" fill="#00335E" stroke="white" stroke-width="0.536165"/>
<path d="M69.4299 82.7016C69.8668 81.9471 69.8668 80.8908 69.4299 80.1363C69.1387 79.5327 68.4106 79.2309 67.6824 79.2309C63.4593 79.3818 61.5661 76.3637 59.673 73.4965C58.508 71.6857 57.4886 70.0258 55.8867 68.9694C52.1004 66.7059 48.1685 71.233 45.4016 74.2511L44.6735 75.0056C38.8484 81.3435 29.3827 82.8525 22.9752 82.3998C22.8296 82.3998 22.8296 82.3998 22.6839 82.3998C21.5189 82.3998 20.9364 83.3053 20.7908 84.2107C20.6452 85.267 21.2277 86.776 22.9752 87.0778C29.5284 87.6815 36.6641 86.0215 42.6347 82.3998C44.5279 81.1926 46.421 79.6836 48.4598 77.5709C49.4792 76.5146 50.3529 75.4583 51.5179 74.402C51.9548 73.9492 52.6829 73.4965 53.4111 73.4965C54.2848 73.6474 54.5761 74.402 55.013 75.1565C55.1586 75.4583 55.3042 75.6092 55.4498 75.911C58.7992 81.3435 62.8768 84.0598 67.3912 83.9089C68.7018 83.9089 69.1387 83.1544 69.4299 82.7016Z" fill="#00335E" stroke="white" stroke-width="0.536165"/>
<path d="M28.459 90.1313C28.1583 91.0007 28.1583 92.5947 29.8125 93.1743C36.5795 95.4929 44.7001 90.7109 47.858 88.5373C48.3092 88.2475 48.7603 87.9577 49.2114 87.5229C51.016 86.0738 53.4221 84.19 55.8282 86.2188C57.7831 87.8127 59.738 89.4067 62.1441 89.8415C63.6479 90.1313 64.7006 89.1169 65.0013 87.9577C65.1517 86.9433 65.0013 85.9289 63.4975 85.6391C61.3922 85.2044 59.8884 84.0451 58.3846 82.8859C56.1289 81.147 54.3244 79.6979 51.1664 81.2919C49.5122 82.0164 47.858 83.1757 46.0535 84.4799C41.6925 87.5229 36.7299 90.8558 31.1659 88.972C30.8651 88.8271 30.5643 88.8271 30.414 88.8271C29.3613 88.8271 28.7598 89.4067 28.459 90.1313Z" fill="#00335E" stroke="white" stroke-width="0.536165"/>
<path d="M45.6663 93.0634C44.003 93.2081 43.2469 94.5101 43.3981 95.8121C43.3981 96.6801 44.003 97.6928 45.5151 97.5481C50.2026 97.1141 54.2852 96.1015 57.3094 94.2208C58.6703 93.3528 58.6703 92.0507 58.0654 91.0381C57.763 90.4594 57.007 90.0254 56.2509 90.0254C55.9485 90.0254 55.4949 90.1701 55.0413 90.3147C52.9243 91.6167 50.6562 92.1954 48.6905 92.6294C47.4808 92.7741 46.5735 92.9188 45.6663 93.0634Z" fill="#00335E" stroke="white" stroke-width="0.536165"/>
<path d="M9.79659 10.8632C9.79659 8.50893 11.7717 6.70858 14.17 6.70858H24.658C25.6826 6.70858 26.5131 5.87802 26.5131 4.85347V3.85511C26.5131 2.83056 25.6826 2 24.658 2H14.17C11.7717 2 9.51444 2.83093 7.82153 4.49278C6.12861 6.15463 5.14108 8.50893 5 10.8632V25.5695C5 26.5941 5.83056 27.4246 6.85511 27.4246H7.94148C8.96603 27.4246 9.79659 26.5941 9.79659 25.5695V10.8632Z" fill="#00335E"/>
<path d="M9.79659 10.8632C9.79659 8.50893 11.7717 6.70858 14.17 6.70858H24.658C25.6826 6.70858 26.5131 5.87802 26.5131 4.85347V3.85511C26.5131 2.83056 25.6826 2 24.658 2H14.17C11.7717 2 9.51444 2.83093 7.82153 4.49278C6.12861 6.15463 5.14108 8.50893 5 10.8632V25.5695C5 26.5941 5.83056 27.4246 6.85511 27.4246H7.94148C8.96603 27.4246 9.79659 26.5941 9.79659 25.5695V10.8632Z" stroke="white"/>
<path d="M78.6337 7.90084C79.4963 8.72421 79.9276 9.82204 79.9276 10.9199V25.5695C79.9276 26.594 80.7581 27.4246 81.7827 27.4246H82.9604C83.985 27.4246 84.8155 26.594 84.8155 25.5695V10.9199C84.8155 8.58698 83.953 6.39132 82.2278 4.60735C80.5026 2.9606 78.2024 2 75.7584 2H68.0012C66.9767 2 66.1461 2.83056 66.1461 3.85511V4.81066C66.1461 5.83521 66.9767 6.66578 68.0012 6.66578H75.7584C76.621 6.66578 77.7711 7.07746 78.6337 7.90084Z" fill="#00335E"/>
<path d="M78.6337 7.90084C79.4963 8.72421 79.9276 9.82204 79.9276 10.9199V25.5695C79.9276 26.594 80.7581 27.4246 81.7827 27.4246H82.9604C83.985 27.4246 84.8155 26.594 84.8155 25.5695V10.9199C84.8155 8.58698 83.953 6.39132 82.2278 4.60735C80.5026 2.9606 78.2024 2 75.7584 2H68.0012C66.9767 2 66.1461 2.83056 66.1461 3.85511V4.81066C66.1461 5.83521 66.9767 6.66578 68.0012 6.66578H75.7584C76.621 6.66578 77.7711 7.07746 78.6337 7.90084Z" stroke="white"/>
<path d="M82.0585 79.4045C81.034 79.4045 80.2034 80.2351 80.2034 81.2597V94.0383C80.2034 96.3926 78.2283 98.1929 75.83 98.1929H65.8927C64.8682 98.1929 64.0376 99.0235 64.0376 100.048V101.046C64.0376 102.071 64.8682 102.902 65.8927 102.902H75.83H75.9711C80.9088 102.902 85 98.8854 85 94.0383V81.2597C85 80.2351 84.1694 79.4045 83.1449 79.4045H82.0585Z" fill="#00335E"/>
<path d="M82.0585 79.4045C81.034 79.4045 80.2034 80.2351 80.2034 81.2597V94.0383C80.2034 96.3926 78.2283 98.1929 75.83 98.1929H65.8927C64.8682 98.1929 64.0376 99.0235 64.0376 100.048V101.046C64.0376 102.071 64.8682 102.902 65.8927 102.902H75.83H75.9711C80.9088 102.902 85 98.8854 85 94.0383V81.2597C85 80.2351 84.1694 79.4045 83.1449 79.4045H82.0585Z" stroke="white"/>
<path d="M11.1235 97.0905C10.2691 96.2671 9.84184 95.1693 9.84184 94.0715V82.2374C9.84184 81.2129 9.01128 80.3823 7.98673 80.3823H6.85511C5.83056 80.3823 5 81.2129 5 82.2374V94.0715C5 99.0117 8.9874 102.991 14.1141 102.991H25.7258C26.7504 102.991 27.5809 102.161 27.5809 101.136V100.181C27.5809 99.1561 26.7504 98.3256 25.7258 98.3256H14.1141C13.1172 98.3256 11.978 97.9139 11.1235 97.0905Z" fill="#00335E"/>
<path d="M11.1235 97.0905C10.2691 96.2671 9.84184 95.1693 9.84184 94.0715V82.2374C9.84184 81.2129 9.01128 80.3823 7.98673 80.3823H6.85511C5.83056 80.3823 5 81.2129 5 82.2374V94.0715C5 99.0117 8.9874 102.991 14.1141 102.991H25.7258C26.7504 102.991 27.5809 102.161 27.5809 101.136V100.181C27.5809 99.1561 26.7504 98.3256 25.7258 98.3256H14.1141C13.1172 98.3256 11.978 97.9139 11.1235 97.0905Z" stroke="white"/>
</svg>
