<svg width="120" height="120" viewBox="0 0 120 120" fill="none" xmlns="http://www.w3.org/2000/svg">
<path d="M7.29167 81H7.14543C4.85597 81 3 79.144 3 76.8546V36.1454C3 33.856 4.85597 32 7.14543 32H101.855C104.144 32 106 33.856 106 36.1454V76.8546C106 79.144 104.144 81 101.855 81H82.1574" stroke="#00335E" stroke-width="4.14543"/>
<path d="M10 31.5V28.1454C10 25.856 11.856 24 14.1454 24H87.7269M106.801 73H108.855C111.144 73 113 71.144 113 68.8546V28.1454C113 25.856 111.144 24 108.855 24H100.363" stroke="#00335E" stroke-width="4.14543" stroke-linecap="round"/>
<path d="M27.287 61.6957C37.9629 61.6957 46.6174 59.0328 46.6174 55.7479C46.6174 52.463 37.9629 49.8 27.287 49.8C16.6111 49.8 7.95657 52.463 7.95657 55.7479C7.95657 59.0328 16.6111 61.6957 27.287 61.6957Z" stroke="#00335E" stroke-width="4.14543" stroke-miterlimit="10" stroke-linejoin="round"/>
<path d="M65.9478 78.5477C76.6237 78.5477 85.2783 75.8848 85.2783 72.5999C85.2783 69.315 76.6237 66.6521 65.9478 66.6521C55.2719 66.6521 46.6174 69.315 46.6174 72.5999C46.6174 75.8848 55.2719 78.5477 65.9478 78.5477Z" stroke="#00335E" stroke-width="4.14543" stroke-miterlimit="10" stroke-linejoin="round"/>
<path d="M7.95657 55.7478V65.0785C7.95657 65.0785 11.581 70.6174 27.6897 70.6174C43.7984 70.6174 46.6174 64.3441 46.6174 64.3441V55.7478" stroke="#00335E" stroke-width="4.14543" stroke-miterlimit="10" stroke-linejoin="round"/>
<path d="M46.6174 72.5996V81.9303C46.6174 81.9303 50.2419 87.4692 66.3505 87.4692C82.4592 87.4692 85.2783 81.1959 85.2783 81.1959V72.5996" stroke="#00335E" stroke-width="4.14543" stroke-miterlimit="10" stroke-linejoin="round"/>
<path d="M7.95657 64.6699V74.0006C7.95657 74.0006 11.581 79.5395 27.6897 79.5395C43.7984 79.5395 46.6174 73.2662 46.6174 73.2662V64.6699" stroke="#00335E" stroke-width="4.14543" stroke-miterlimit="10" stroke-linejoin="round"/>
<path d="M46.6174 81.5217V90.8524C46.6174 90.8524 50.2419 96.3913 66.3505 96.3913C82.4592 96.3913 85.2783 90.118 85.2783 90.118V81.5217" stroke="#00335E" stroke-width="4.14543" stroke-miterlimit="10" stroke-linejoin="round"/>
<path d="M7.95657 73.5913V82.922C7.95657 82.922 11.581 88.4609 27.6897 88.4609C43.7984 88.4609 46.6174 82.1876 46.6174 82.1876V73.5913" stroke="#00335E" stroke-width="4.14543" stroke-miterlimit="10" stroke-linejoin="round"/>
<path d="M7.95657 82.5127V91.8434C7.95657 91.8434 11.581 97.3823 27.6897 97.3823C43.7984 97.3823 46.6174 91.109 46.6174 91.109V82.5127" stroke="#00335E" stroke-width="4.14543" stroke-miterlimit="10" stroke-linejoin="round"/>
<path d="M58.513 46.8L58.513 63.6522" stroke="#00335E" stroke-width="3.10907" stroke-linecap="round"/>
<path fill-rule="evenodd" clip-rule="evenodd" d="M65.6552 64.3961C65.6738 64.2049 65.6831 64.0096 65.6831 63.8104C65.6831 62.7725 65.4586 61.8889 65.0098 61.1595C64.561 60.4021 63.8457 59.7569 62.8639 59.224C61.9101 58.691 60.6337 58.2141 59.0348 57.7933L57.7304 57.4567C56.5803 57.1481 55.7668 56.8396 55.2899 56.531C54.841 56.1944 54.6166 55.7315 54.6166 55.1424C54.6166 54.4692 54.8972 53.9362 55.4582 53.5435C56.0473 53.1227 56.8467 52.9123 57.8566 52.9123C58.8104 52.9123 59.708 53.0385 60.5496 53.291C61.0532 53.4253 61.612 53.6299 62.2261 53.9048C62.9696 54.2377 63.8597 53.991 64.2651 53.2845C64.6771 52.5665 64.4353 51.6411 63.6823 51.2971C62.927 50.9521 62.1773 50.691 61.4332 50.5139C60.2831 50.2053 59.0769 50.051 57.8145 50.051C56.4961 50.051 55.3039 50.2754 54.2379 50.7243C53.2 51.1731 52.3865 51.8043 51.7974 52.6178C51.2083 53.4032 50.9138 54.3149 50.9138 55.3528C50.9138 56.7273 51.3626 57.8354 52.2603 58.6769C53.186 59.4904 54.6307 60.1497 56.5943 60.6546L57.8987 60.9912C59.4135 61.3839 60.4654 61.8328 61.0545 62.3377C61.6717 62.8146 61.9802 63.3896 61.9802 64.0629C61.9802 64.1776 61.974 64.2887 61.9615 64.3961H65.6552ZM50.7609 67.3038V65.9094C50.5205 66.3599 50.5257 66.8902 50.7609 67.3038Z" fill="#00335E"/>
<path d="M43 50.5C45 43.5 51.6611 39.8608 58.0174 39.8608C67.0508 39.8608 74.3739 47.1839 74.3739 56.2174C74.3739 58.8945 73.5 63.5 70.5 66.5" stroke="#00335E" stroke-width="4.14543"/>
</svg>
