<svg width="160" height="160" viewBox="0 0 160 160" fill="none" xmlns="http://www.w3.org/2000/svg">
<path d="M36.5704 62.1553V16.2708C36.5704 11.7321 40.2498 8.05273 44.7885 8.05273H104.467C106.856 8.05273 109.128 9.0929 110.689 10.9022L135.931 40.1572C137.219 41.6495 137.927 43.5548 137.927 45.5258V134.064C137.927 138.602 134.248 142.282 129.709 142.282H44.7885C40.2498 142.282 36.5704 138.602 36.5704 134.064V72.4279" stroke="#00335E" stroke-width="5.47874" stroke-linecap="round"/>
<line x1="51.6369" y1="28.5979" x2="83.1397" y2="28.5979" stroke="#00335E" stroke-width="5.47874" stroke-linecap="round"/>
<line x1="51.6369" y1="62.8401" x2="120.121" y2="62.8401" stroke="#00335E" stroke-width="5.47874" stroke-linecap="round"/>
<line x1="51.6369" y1="39.5556" x2="74.9216" y2="39.5556" stroke="#00335E" stroke-width="5.47874" stroke-linecap="round"/>
<line x1="51.6369" y1="73.7977" x2="120.121" y2="73.7977" stroke="#00335E" stroke-width="5.47874" stroke-linecap="round"/>
<line x1="51.6369" y1="94.3429" x2="74.9216" y2="94.3429" stroke="#00335E" stroke-width="5.47874" stroke-linecap="round"/>
<line x1="51.6369" y1="83.3854" x2="120.121" y2="83.3854" stroke="#00335E" stroke-width="5.47874" stroke-linecap="round"/>
<path fill-rule="evenodd" clip-rule="evenodd" d="M103.017 97.6193L106.424 94.3429L109.829 97.6193L114.267 96.0178L116.051 100.404L120.754 100.759L120.61 105.495L124.761 107.74L122.714 112.01L125.6 115.757L122.004 118.821L123.123 123.425L118.596 124.75L117.757 129.415L113.087 128.777L110.434 132.694L106.424 130.201L102.415 132.694L99.7611 128.777L95.0913 129.415L94.2496 124.75L89.726 123.425L90.8449 118.821L87.2487 115.757L90.1317 112.01L88.0854 107.74L92.2385 105.495L92.0949 100.759L96.7949 100.404L98.5817 96.0178L103.017 97.6193ZM116.095 113.518C116.095 118.86 111.766 123.19 106.424 123.19C101.083 123.19 96.7531 118.86 96.7531 113.518C96.7531 108.177 101.083 103.847 106.424 103.847C111.766 103.847 116.095 108.177 116.095 113.518ZM118.93 113.518C118.93 120.425 113.331 126.024 106.424 126.024C99.5175 126.024 93.9185 120.425 93.9185 113.518C93.9185 106.612 99.5175 101.013 106.424 101.013C113.331 101.013 118.93 106.612 118.93 113.518Z" fill="#00335E"/>
<path d="M108.479 32.0222V8.05273L137.927 42.2949C133.133 42.2949 124.997 42.2307 117.382 42.2307C110.303 42.2307 108.479 35.0853 108.479 32.0222Z" stroke="#00335E" stroke-width="5.47874" stroke-linecap="round" stroke-linejoin="round"/>
<path d="M24.2432 36.8162L24.2432 131.324" stroke="#00335E" stroke-width="5.47874" stroke-linecap="round" stroke-linejoin="round"/>
<path d="M24.2432 36.1312C23.7866 32.707 25.6129 26.2695 36.5704 27.9131" stroke="#00335E" stroke-width="5.47874" stroke-linecap="round" stroke-linejoin="round"/>
<path d="M25.6129 142.282C25.6129 147.173 28.3523 152.879 38.6249 152.879C53.4319 152.879 85.6508 153.151 103 152.879C110.533 152.879 114.642 148.803 114.642 142.282" stroke="#00335E" stroke-width="5.47874" stroke-linecap="round" stroke-linejoin="round"/>
</svg>
