<svg width="160" height="160" viewBox="0 0 160 160" fill="none" xmlns="http://www.w3.org/2000/svg">
<path d="M109.462 50.8221H88.8927V33.4928C88.8927 31.611 87.3933 30.1084 85.5243 30.1084H75.0497C73.1772 30.1084 71.6814 31.611 71.6814 33.4928V50.8221H51.1087C49.2362 50.8221 47.7404 52.3318 47.7404 54.2136V64.76C47.7404 66.6453 49.2362 68.1514 51.1087 68.1514H71.6814V112.974C71.6814 114.859 73.1772 116.365 75.0497 116.365H85.5243C87.3933 116.365 88.8927 114.859 88.8927 112.974V68.1479H109.462C111.331 68.1479 112.83 66.6418 112.83 64.7565V54.2101C112.83 52.3283 111.331 50.8221 109.462 50.8221ZM108.343 63.626H86.6436C85.5243 63.626 84.3981 64.7565 84.3981 65.8905V111.843H76.169V65.8905C76.169 64.76 75.0497 63.626 73.9234 63.626H52.2245V55.344H73.9234C75.0462 55.344 76.169 54.2136 76.169 53.0796V34.6268H84.3981V53.0796C84.3981 54.2101 85.5208 55.344 86.6436 55.344H108.343V63.626Z" fill="#00335E"/>
<path d="M98.6141 6H61.5833C42.503 6 27.1641 21.444 27.1641 40.6551V71.1605C27.1641 72.291 28.2869 73.4214 29.4097 73.4214C30.5325 73.4214 31.6588 72.2945 31.6588 71.1605V40.6551C31.6588 24.0771 45.1251 10.5184 61.5868 10.5184H98.6176C115.083 10.5184 128.546 24.0771 128.546 40.6551V71.5397C128.546 72.6666 129.668 73.7971 130.791 73.7971C131.914 73.7971 133.04 72.6701 133.04 71.5397V40.6551C133.033 21.444 117.691 6 98.6141 6Z" fill="#00335E"/>
<path d="M156.597 147.622C153.606 145.365 147.995 143.859 142.005 142.725V131.806C142.005 128.039 139.013 124.648 134.899 124.648H133.03V82.462C133.03 81.335 131.907 80.201 130.781 80.201C129.661 80.201 128.535 81.3315 128.535 82.462V124.648H124.42V40.6553C124.42 26.3418 112.823 15.0405 98.9836 15.0405H61.9528C47.7402 15.0405 36.5159 26.7175 36.5159 40.6553V124.648H32.3979V82.0863C32.3979 80.9594 31.2786 79.8254 30.1558 79.8254C29.0295 79.8254 27.9067 80.9558 27.9067 82.0863V124.272H25.2916C21.5536 124.272 18.1853 127.281 18.1853 131.427V142.349C12.1983 143.48 6.59137 145.365 3.59264 147.247C2.47335 148.002 1.72367 149.883 2.09677 151.393C2.46986 152.899 3.96574 154.03 5.4651 154.03H153.979C155.475 154.03 156.971 152.899 157.344 151.393C158.473 150.263 158.093 148.753 156.597 147.622ZM40.6339 40.6553C40.6339 28.9749 49.9857 19.5589 61.5831 19.5589H98.6139C110.215 19.5589 119.567 28.9749 119.567 40.6553V124.648H40.6339V40.6553ZM25.2916 129.166H134.902C136.398 129.166 137.524 130.297 137.524 131.806V141.974C134.529 141.601 131.91 141.222 128.919 140.847C115.076 138.961 97.8678 138.21 79.9103 138.21C61.9528 138.21 44.7449 139.34 30.902 140.847C28.2833 141.222 25.2916 141.601 22.2963 141.974V131.806C23.046 130.297 24.1723 129.166 25.2916 129.166ZM9.95622 149.88C20.0577 146.116 45.4946 142.725 80.2868 142.725C115.079 142.725 140.512 146.116 150.614 149.88H9.95622Z" fill="#00335E"/>
</svg>
