<svg width="120" height="120" viewBox="0 0 120 120" fill="none" xmlns="http://www.w3.org/2000/svg">
<rect x="4" y="35.6301" width="97.9445" height="59.7462" rx="6.84" stroke="#00335E" stroke-width="4.56"/>
<path d="M18.4753 36.1197L20.0389 24.7759C20.5547 21.0337 24.0065 18.4181 27.7487 18.9339L111.224 30.4395C114.966 30.9553 117.582 34.4071 117.066 38.1493L110.776 83.784C110.26 87.5263 106.809 90.1419 103.066 89.6261L100.475 89.2689" stroke="#00335E" stroke-width="4.56"/>
<line x1="6.28" y1="52.9392" x2="90.8495" y2="52.9392" stroke="#00335E" stroke-width="4.56" stroke-linecap="round"/>
<path fill-rule="evenodd" clip-rule="evenodd" d="M84.8043 81.4846C84.0106 79.8508 82.3352 78.7246 80.3968 78.7246C77.6921 78.7246 75.4996 80.9172 75.4996 83.6218C75.4996 86.3265 77.6921 88.5191 80.3968 88.5191C82.3352 88.5191 84.0106 87.3929 84.8043 85.7591C84.4905 85.1132 84.3145 84.3881 84.3145 83.6218C84.3145 82.8556 84.4905 82.1304 84.8043 81.4846Z" fill="#00335E"/>
<circle cx="91.1707" cy="83.6223" r="4.89723" fill="#00335E"/>
<line x1="13.1361" y1="66.6516" x2="26.2062" y2="66.6516" stroke="#00335E" stroke-width="4.56" stroke-linecap="round"/>
<line x1="13.1361" y1="74.4868" x2="41.8773" y2="74.4868" stroke="#00335E" stroke-width="4.56" stroke-linecap="round"/>
<line x1="33.7044" y1="66.6516" x2="46.7744" y2="66.6516" stroke="#00335E" stroke-width="4.56" stroke-linecap="round"/>
<line x1="56.2317" y1="66.6516" x2="69.3017" y2="66.6516" stroke="#00335E" stroke-width="4.56" stroke-linecap="round"/>
<line x1="76.8001" y1="66.6516" x2="89.8701" y2="66.6516" stroke="#00335E" stroke-width="4.56" stroke-linecap="round"/>
</svg>
