<svg width="105" height="105" viewBox="0 0 105 105" fill="none" xmlns="http://www.w3.org/2000/svg">
<rect x="3" y="19" width="90.9952" height="58.9784" rx="4.88625" stroke="#6C1A3E" stroke-width="3.2575"/>
<line x1="4.62875" y1="26.6393" x2="84.7836" y2="26.6393" stroke="#6C1A3E" stroke-width="3.2575" stroke-linecap="round"/>
<line x1="38.3307" y1="35.0649" x2="53.6092" y2="35.0649" stroke="#6C1A3E" stroke-width="3.2575" stroke-linecap="round"/>
<line x1="11.3691" y1="63.7115" x2="42.6561" y2="63.7115" stroke="#6C1A3E" stroke-width="3.2575" stroke-linecap="round"/>
<line x1="50.1264" y1="63.7115" x2="84.7836" y2="63.7115" stroke="#6C1A3E" stroke-width="3.2575" stroke-linecap="round"/>
<line x1="11.3691" y1="68.7666" x2="24.12" y2="68.7666" stroke="#6C1A3E" stroke-width="3.2575" stroke-linecap="round"/>
<line x1="30.7478" y1="68.7666" x2="84.7836" y2="68.7666" stroke="#6C1A3E" stroke-width="3.2575" stroke-linecap="round"/>
<line x1="38.3307" y1="41.8052" x2="53.6092" y2="41.8052" stroke="#6C1A3E" stroke-width="3.2575" stroke-linecap="round"/>
<line x1="38.3307" y1="47.703" x2="53.6092" y2="47.703" stroke="#6C1A3E" stroke-width="3.2575" stroke-linecap="round"/>
<rect x="9.74034" y="32.4808" width="23.5914" height="24.4339" rx="1.62875" stroke="#6C1A3E" stroke-width="3.2575"/>
<rect x="67.0339" y="33.3232" width="19.3786" height="20.2212" rx="1.62875" stroke="#6C1A3E" stroke-width="3.2575"/>
<line x1="67.0339" y1="40.12" x2="86.4125" y2="40.12" stroke="#6C1A3E" stroke-width="3.2575"/>
<line x1="67.0339" y1="46.8605" x2="86.4125" y2="46.8605" stroke="#6C1A3E" stroke-width="3.2575"/>
<circle cx="21.0188" cy="42.4245" r="4.50471" stroke="#6C1A3E" stroke-width="3.2575"/>
<path d="M13.8113 56.8394C13.8113 54.0315 15.3778 48.4805 21.6438 48.7397C27.9098 48.9989 29.2389 54.2475 29.1203 56.8394" stroke="#6C1A3E" stroke-width="3.2575"/>
<path d="M18.316 85.6566L30.0282 85.6566" stroke="#6C1A3E" stroke-width="3.48327" stroke-linecap="round" stroke-linejoin="round"/>
<path d="M40.8394 85.6566L94.272 85.7687" stroke="#6C1A3E" stroke-width="3.48327" stroke-linecap="round" stroke-linejoin="round"/>
<path d="M17.5886 85.5964C15.3359 85.8944 11.5589 83.8678 12.0094 78.4622" stroke="#6C1A3E" stroke-width="3.48327" stroke-linecap="round" stroke-linejoin="round"/>
<path d="M94.8961 85.6697C98.1134 85.6731 101.869 83.8751 101.876 77.118C101.88 73.2331 101.914 60.3185 101.944 54.1367M94.9575 27.1084C99.2472 27.1129 101.925 29.8186 101.92 34.7737C102 40.2202 101.996 37.984 101.968 45.5778" stroke="#6C1A3E" stroke-width="3.48327" stroke-linecap="round" stroke-linejoin="round"/>
</svg>
