<svg width="140" height="140" viewBox="0 0 140 140" fill="none" xmlns="http://www.w3.org/2000/svg">
<rect x="6" y="27" width="117.65" height="76.2549" rx="5.28105" stroke="white" stroke-width="3.5207"/>
<line x1="7.76035" y1="37.2226" x2="112.086" y2="37.2226" stroke="white" stroke-width="3.5207" stroke-linecap="round"/>
<line x1="51.3345" y1="48.1161" x2="71.7796" y2="48.1161" stroke="white" stroke-width="3.5207" stroke-linecap="round"/>
<line x1="16.475" y1="85.1543" x2="57.6179" y2="85.1543" stroke="white" stroke-width="3.5207" stroke-linecap="round"/>
<line x1="66.5855" y1="85.1543" x2="112.086" y2="85.1543" stroke="white" stroke-width="3.5207" stroke-linecap="round"/>
<line x1="16.475" y1="91.6902" x2="33.652" y2="91.6902" stroke="white" stroke-width="3.5207" stroke-linecap="round"/>
<line x1="41.5303" y1="91.6902" x2="112.086" y2="91.6902" stroke="white" stroke-width="3.5207" stroke-linecap="round"/>
<line x1="51.3345" y1="56.831" x2="71.7796" y2="56.831" stroke="white" stroke-width="3.5207" stroke-linecap="round"/>
<line x1="51.3345" y1="64.4564" x2="71.7796" y2="64.4565" stroke="white" stroke-width="3.5207" stroke-linecap="round"/>
<rect x="14.7146" y="44.4297" width="30.502" height="31.5913" rx="1.76035" stroke="white" stroke-width="3.5207"/>
<rect x="88.7911" y="45.519" width="25.0552" height="26.1446" rx="1.76035" stroke="white" stroke-width="3.5207"/>
<line x1="88.7911" y1="54.6522" x2="113.846" y2="54.6522" stroke="white" stroke-width="3.5207"/>
<line x1="88.7911" y1="63.3671" x2="113.846" y2="63.3671" stroke="white" stroke-width="3.5207"/>
<ellipse cx="29.4211" cy="56.4126" rx="5.99146" ry="6.53614" stroke="white" stroke-width="3.5207"/>
<path d="M20.1617 76.021C20.1617 72.2487 22.1672 64.791 30.1892 65.1392C38.2113 65.4874 39.9129 72.5388 39.761 76.021" stroke="white" stroke-width="3.5207"/>
<path d="M25.8022 113.182L40.9453 113.182" stroke="white" stroke-width="3.76471" stroke-linecap="round" stroke-linejoin="round"/>
<path d="M54.9238 113.182L124.008 113.327" stroke="white" stroke-width="3.76471" stroke-linecap="round" stroke-linejoin="round"/>
<path d="M24.8621 113.104C21.9495 113.49 17.0661 110.869 17.6485 103.88" stroke="white" stroke-width="3.76471" stroke-linecap="round" stroke-linejoin="round"/>
<path d="M124.815 113.199C128.975 113.203 133.83 110.879 133.839 102.142C133.845 97.1195 133.889 80.4218 133.927 72.4292M124.895 37.4835C130.441 37.4893 133.903 40.9875 133.897 47.3942C134 54.4361 133.994 51.5449 133.959 61.3631" stroke="white" stroke-width="3.76471" stroke-linecap="round" stroke-linejoin="round"/>
</svg>
