<svg width="160" height="160" viewBox="0 0 160 160" fill="none" xmlns="http://www.w3.org/2000/svg">
<path d="M107.724 74.9734C106.277 74.9734 105.555 76.0589 105.555 77.1473V79.683C105.555 81.1333 106.638 81.8599 107.724 81.8599C109.171 81.8599 109.896 80.7715 109.896 79.683V77.1473C109.896 76.0618 109.171 74.9734 107.724 74.9734Z" fill="#00335E"/>
<path d="M125.809 74.9734C124.362 74.9734 123.638 76.0589 123.638 77.1473V79.683C123.638 81.1333 124.723 81.8599 125.809 81.8599C127.253 81.8599 127.978 80.7715 127.978 79.683V77.1473C127.978 76.0618 126.892 74.9734 125.809 74.9734Z" fill="#00335E"/>
<path d="M122.916 88.0257C121.83 87.2991 120.383 87.6639 119.658 88.3875C119.3 89.1112 118.215 89.476 116.407 89.476C114.96 89.476 113.875 88.7523 113.153 88.3875C112.428 87.2991 110.981 86.9373 109.898 88.0257C108.813 88.7523 108.449 90.1996 109.534 91.288C110.981 93.4619 113.514 94.5504 116.407 94.5504C119.3 94.5504 121.83 93.4619 123.277 91.288C124.362 90.1996 123.998 88.7523 122.916 88.0257Z" fill="#00335E"/>
<path d="M33.9432 78.2389C32.4965 78.2389 31.7746 79.3244 31.7746 80.4128V83.3133C31.7746 84.7635 32.8604 85.4872 33.9432 85.4872C35.0289 85.4872 36.1118 84.3988 36.1118 83.3133V80.7746C36.4727 79.3244 35.3899 78.2389 33.9432 78.2389Z" fill="#00335E"/>
<path d="M48.7709 91.2883C47.688 90.5617 46.2414 90.9265 45.5166 91.6501C45.1556 92.3738 44.0728 92.7385 42.6232 92.7385C41.1794 92.7385 40.0937 92.0119 39.7327 91.6501C39.0079 90.5617 37.5613 90.1999 36.4755 91.2883C35.3927 92.0119 35.0317 93.4622 36.1146 94.5506C37.5613 96.3627 40.0937 97.8129 42.6232 97.8129C45.1556 97.8129 48.049 96.7245 49.1347 94.5506C50.2175 93.4622 49.8566 92.0119 48.7709 91.2883Z" fill="#00335E"/>
<path d="M91.0887 125.37C89.6391 125.37 88.9172 126.459 88.9172 127.544V131.895C88.9172 133.345 90.0029 134.069 91.0887 134.069C92.1715 134.069 93.2572 132.98 93.2572 131.895V127.544C93.6182 126.459 92.5324 125.37 91.0887 125.37Z" fill="#00335E"/>
<path d="M89.2781 5C85.6628 5 82.0447 6.45024 79.1513 8.98598C76.2579 6.45024 73.0036 5 69.0245 5C60.7083 5 53.8358 11.8865 53.8358 20.2261C53.8358 27.4773 58.1729 34.7315 66.1341 40.5325C71.9179 44.8803 77.7075 47.0571 78.0685 47.4189C78.4323 47.4189 78.7933 47.4189 78.7933 47.4189C79.1542 47.4189 79.5151 47.4189 79.5151 47.4189C79.879 47.4189 85.6628 44.8803 91.4496 40.5325C99.4078 34.3696 103.751 27.4773 103.751 20.2261C104.109 11.8865 97.5972 5 89.2781 5ZM79.1542 42.7064C75.1751 40.8943 58.5397 32.9165 58.5397 20.2261C58.5397 14.4281 63.2407 9.71257 69.0274 9.71257C72.2846 9.71257 75.1751 11.1628 77.3466 13.7015C77.7075 14.0633 78.4323 14.4251 79.1542 14.4251C79.879 14.4251 80.6009 14.0633 80.9618 13.7015C83.1304 11.1628 86.0238 9.71257 89.2781 9.71257C95.0648 9.71257 99.7687 14.4251 99.7687 20.2261C99.7687 32.5547 83.1304 40.8943 79.1542 42.7064Z" fill="#00335E"/>
<path d="M144.252 107.603L129.785 103.255C129.785 103.255 129.785 103.255 129.424 103.255L127.253 102.89C126.531 102.89 126.17 102.166 126.17 101.802V100.716C132.315 97.8156 136.658 92.7412 138.829 86.5754H140.637C143.891 86.5754 146.424 84.0368 146.424 80.7745V77.1503C146.424 75.3382 145.699 73.888 144.616 72.7996V68.8136C144.616 55.3966 133.764 44.8831 120.744 44.8831H113.514C100.13 44.8831 89.642 55.7614 89.642 68.8136V72.4377C88.5592 73.5232 87.8344 74.9764 87.8344 76.7856V80.4126C87.8344 83.6749 90.3668 86.2136 93.6211 86.2136H95.4287C97.2364 92.3735 101.937 97.4537 107.727 100.354V101.44C107.727 102.166 107.366 102.528 106.641 102.528L104.834 102.89C104.834 102.89 104.834 102.89 104.473 102.89L90.0059 107.241C84.9439 108.691 80.9648 112.315 78.4324 117.031C77.3466 115.577 76.2609 114.127 74.8142 113.042L80.601 111.227C83.8553 110.141 86.0238 107.241 85.6629 103.617C85.302 97.4537 83.8553 85.487 78.0685 71.3464C70.8351 53.9435 60.3445 47.4188 52.3921 44.8802C50.5845 41.9826 47.3301 40.1676 43.351 40.1676C39.3719 40.1676 36.4786 41.9826 34.31 44.8802C26.3547 47.4188 16.2279 53.9435 8.63353 71.3464C2.8468 85.487 1.40011 97.4508 1.03917 103.617C0.678226 106.879 2.8468 110.141 6.10111 111.227L11.8878 113.042C7.90873 116.304 5.74016 121.017 5.74016 126.459V152.195C5.74016 153.649 6.8259 154.372 7.90873 154.372H155.831C157.275 154.372 158 153.284 158 152.195V125.37C157.633 117.033 152.207 109.779 144.252 107.603ZM73.0037 73.1614C78.7904 86.5754 79.8762 98.1745 80.2342 103.978C80.2342 105.064 79.5123 106.517 78.4295 106.879L68.6636 110.141C68.3027 110.141 68.3027 110.141 67.9418 110.141L54.5577 106.152C54.5577 106.152 54.5577 106.152 54.1968 106.152L52.0253 105.79C51.6673 105.79 51.3034 105.429 51.3034 105.064V103.978C51.3034 103.978 51.3034 103.978 51.6673 103.978C52.0253 103.978 52.0253 103.617 52.3892 103.617H52.7501C53.1111 103.617 53.1111 103.255 53.472 103.255H53.8359C54.1968 103.255 54.1968 102.89 54.5577 102.89C54.5577 102.89 54.5577 102.89 54.9187 102.89C55.2825 102.528 55.6435 102.528 55.6435 102.166C59.6197 99.2658 62.513 95.2798 63.9597 90.5614H65.7674C68.6607 90.5614 71.1932 88.0257 71.1932 85.1252V81.501V81.1363V80.7745V80.4126V80.0508C71.1932 80.0508 71.1931 79.686 70.8293 79.686C70.8293 79.686 70.8293 79.3242 70.4713 79.3242C70.4713 79.3242 70.4713 78.9624 70.1074 78.9624L69.7465 78.6005L69.3855 78.2387L69.0217 77.874C69.0217 77.5121 69.0217 77.1503 69.0217 76.7856V76.4266C69.0217 76.0619 69.0217 76.0619 69.0217 75.7001C69.0217 75.3382 69.0217 75.3382 69.0217 75.3382C69.0217 75.3382 69.0217 75.3382 69.0217 74.9764C68.2998 68.4488 65.0455 62.6479 60.3416 58.2971C59.9835 57.9353 59.6197 57.5735 58.8978 57.2087L58.5368 56.8469L58.173 56.485C58.173 56.485 57.8121 56.485 57.8121 56.1203C57.4511 56.1203 57.4511 55.7585 57.0902 55.7585C56.7292 55.3966 56.3654 55.3966 56.0044 55.0348C55.6435 55.0348 55.2825 54.673 55.2825 54.673C55.2825 54.673 55.2825 54.673 54.9187 54.673C54.9187 54.673 54.9187 54.673 54.5577 54.673V54.3111C54.5577 53.9464 54.779 52.6595 54.779 52.2977L54.5577 53.5846C59.9864 53.5816 67.217 60.1092 73.0037 73.1614ZM51.3034 85.487C52.7501 85.487 53.472 84.3986 53.472 83.3131V80.7745C53.472 80.4126 53.472 79.686 53.1111 79.3242H60.3416V82.5895C60.3416 82.9484 60.3416 83.3131 60.3416 83.6749C60.3416 84.0368 60.3416 84.3986 60.3416 84.7634C60.3416 85.1252 60.3416 85.487 60.3416 85.8518C60.3416 86.2136 60.3416 86.5754 60.3416 86.5754V86.9373V87.2991V87.6638V88.0257V88.3875C60.3416 88.7523 60.3416 88.7523 59.9835 89.1112C59.9835 89.1112 59.9835 89.1112 59.9835 89.4759C59.6197 89.8378 59.6197 90.5614 59.2587 90.9262C58.173 93.1001 56.3654 95.2769 54.1968 97.089L53.8359 97.4508C53.8359 97.4508 53.8359 97.4508 53.472 97.4508L53.1111 97.8126C53.1111 97.8126 52.7501 97.8126 52.7501 98.1745H52.3892L52.0253 98.5363C52.0253 98.5363 52.0253 98.5363 51.6673 98.5363C51.3034 98.5363 51.3034 98.9011 50.9425 98.9011C50.9425 98.9011 50.9425 98.9011 50.5815 98.9011C50.2177 98.9011 50.2177 99.2629 49.8567 99.2629C49.4958 99.2629 49.4958 99.2629 49.1349 99.6247C49.1349 99.6247 49.1349 99.6247 48.771 99.6247H48.4101H48.0491H47.6882C47.3272 99.6247 47.3272 99.6247 46.9634 99.6247H46.6024H46.2415H45.8776H45.5167H45.1558H44.7948C44.4339 99.6247 44.4339 99.6247 44.0729 99.6247H43.7091C43.3481 99.6247 42.9872 99.6247 42.9872 99.6247C42.6233 99.6247 42.2653 99.6247 42.2653 99.6247C42.2653 99.6247 42.2653 99.6247 41.9014 99.6247C41.5376 99.6247 41.5376 99.6247 41.1796 99.6247H40.8157C40.4548 99.6247 40.4548 99.6247 40.0938 99.6247H39.7329C39.369 99.6247 39.369 99.6247 39.0081 99.6247C39.0081 99.6247 39.0081 99.6247 38.6471 99.6247C38.2862 99.6247 38.2862 99.6247 37.9252 99.6247C37.9252 99.6247 37.9252 99.6247 37.5614 99.6247C37.2004 99.6247 37.2004 99.6247 36.8395 99.2629C35.7538 98.9011 34.668 98.5363 33.5852 97.8126C33.2213 97.8126 33.2213 97.4508 32.8633 97.4508L32.4995 97.089C32.4995 97.089 32.1385 97.089 32.1385 96.7242C29.2451 94.5503 27.0766 92.0117 25.6299 88.7523C25.6299 88.3875 25.2689 88.0257 25.2689 88.0257V87.6638V87.2991V86.9373V86.5754C25.2689 86.2136 25.2689 85.8518 25.2689 85.8518C25.2689 85.487 25.2689 85.1252 25.2689 84.7634C25.2689 84.3986 25.2689 84.0368 25.2689 84.0368C25.2689 83.6749 25.2689 83.3131 25.2689 82.9484V79.3242C25.2689 79.3242 25.2689 79.3242 25.6299 79.3242C25.6299 79.3242 25.9908 79.3242 25.9908 78.9624C25.9908 78.9624 26.3518 78.9624 26.3518 78.6005C26.3518 78.6005 26.3518 78.6005 26.7127 78.2387C26.7127 78.2387 27.0766 77.874 27.0766 77.5121C27.0766 77.5121 27.0766 77.5121 27.0766 77.1503V76.7856V76.4266L28.8842 69.8991C28.8842 69.5372 29.2451 69.5372 29.6061 69.1754C29.6061 69.1754 29.9699 69.1754 30.3309 69.1754C38.6471 76.0619 45.1587 78.2387 49.4987 78.9624C49.1378 79.3242 48.7739 80.0508 48.7739 80.4126V83.3131C49.1349 84.3986 50.2177 85.487 51.3034 85.487ZM65.0484 84.7634V84.3986C65.0484 84.0368 65.0484 84.0368 65.0484 83.6749C65.0484 83.3131 65.0484 82.9484 65.0484 82.5895V79.3242H65.7703C66.1341 79.3242 66.856 79.686 66.856 80.4126V84.0368C66.856 84.3986 66.4951 85.1252 65.7703 85.1252H65.0484V84.7634ZM36.4727 49.9575V49.5927V49.2309V48.8691C37.5585 46.6922 39.73 45.2449 42.2624 45.2449C44.7919 45.2449 46.9605 46.6922 48.0462 48.8691V49.2309V49.5927V49.9575C47.6853 49.9575 47.3243 49.9575 47.3243 49.5927C47.3243 49.5927 47.3243 49.5927 46.9605 49.5927C46.5995 49.5927 46.2386 49.5927 45.8747 49.2309C45.5138 49.2309 45.1528 49.2309 44.7919 49.2309C44.7919 49.2309 44.7919 49.2309 44.431 49.2309C44.07 49.2309 43.7062 49.2309 43.3452 49.2309C43.3452 49.2309 43.3452 49.2309 42.9843 49.2309C42.6204 49.2309 42.2624 49.2309 41.8985 49.2309C41.5347 49.2309 41.1766 49.2309 40.8157 49.2309C40.8157 49.2309 40.8157 49.2309 40.4518 49.2309C40.0909 49.2309 39.73 49.2309 39.3661 49.2309C39.3661 49.2309 39.3661 49.2309 39.0052 49.2309C38.6442 49.2309 38.2833 49.2309 37.9223 49.2309C37.5585 49.2309 37.1975 49.2309 36.8366 49.5927C36.8366 49.5927 36.8366 49.5927 36.4727 49.5927C37.1975 49.9575 36.8366 49.9575 36.4727 49.9575C36.4727 50.3193 36.4727 50.3193 36.4727 49.9575ZM32.4965 56.485C32.8604 56.485 32.8604 56.485 32.4965 56.485C33.2184 56.1203 33.9432 55.7585 34.3042 55.7585C34.3042 55.7585 34.3042 55.7585 34.6651 55.7585C35.029 55.7585 35.029 55.7585 35.3899 55.3966H35.7509H36.1118H36.4727H36.8366H37.1975H37.5585H37.9223C38.2833 55.3966 38.2833 55.3966 38.6442 55.3966H39.0052C39.3661 55.3966 39.3661 55.3966 39.73 55.3966H40.0909C40.4518 55.3966 40.4518 55.3966 40.8157 55.3966H41.1766C41.5347 55.3966 41.8985 55.3966 42.2624 55.3966C42.6204 55.3966 42.9843 55.3966 43.3452 55.3966H43.7062C44.07 55.3966 44.07 55.3966 44.431 55.3966H44.7919C45.1528 55.3966 45.1528 55.3966 45.5138 55.3966H45.8747C46.2386 55.3966 46.2386 55.3966 46.5995 55.3966H46.9605H47.3243H47.6853H48.0462H48.4071H48.7681H49.1319C49.4929 55.3966 49.4929 55.3966 49.8538 55.7585C49.8538 55.7585 49.8538 55.7585 50.2148 55.7585C50.9396 56.1203 51.3005 56.1203 52.0224 56.485C52.3863 56.485 52.3863 56.8469 52.7472 56.8469C52.7472 56.8469 52.7472 56.8469 53.1081 56.8469C53.4691 56.8469 53.4691 57.2087 53.8329 57.2087C53.8329 57.2087 53.8329 57.2087 54.1939 57.2087C54.5548 57.2087 54.5548 57.5735 54.9158 57.5735L55.2796 57.9353C55.2796 57.9353 55.6406 57.9353 55.6406 58.2971L56.0015 58.659C59.9806 62.2831 62.874 67.3575 63.5959 72.7996V73.1643V73.5232C63.5959 73.888 63.5959 73.888 63.5959 74.2498C63.5959 74.2498 63.5959 74.2498 63.5959 74.6116H62.5101H51.2976C44.428 74.6116 36.8308 69.1754 32.8546 65.9131L32.4907 65.5483C32.4907 65.5483 32.1298 65.5483 32.1298 65.1865C32.1298 65.1865 31.7688 65.1865 31.7688 64.8247H31.4108H31.0499H30.6889H30.328H29.967C29.967 64.8247 29.967 64.8247 29.6032 64.8247C29.6032 64.8247 29.6032 64.8247 29.2422 64.8247C29.2422 64.8247 29.2422 64.8247 28.8813 64.8247H28.5203C26.7098 65.5483 25.266 66.6368 24.9022 68.4488L23.4584 74.2498H22.7336H21.2869C21.2869 74.2498 21.2869 74.2498 21.2869 73.888C21.2869 73.5232 21.2869 73.5232 21.2869 73.1643V72.7996V72.4348C22.0088 66.9986 24.5412 61.9184 28.8813 58.2942L29.2422 57.9324C29.2422 57.9324 29.2422 57.9324 29.6032 57.5705L29.967 57.2058C30.328 57.2058 30.328 56.844 30.6889 56.844C30.6889 56.844 30.6889 56.844 31.0499 56.844C31.4108 56.844 31.4108 56.4821 31.7747 56.4821C31.7747 56.4821 31.7747 56.4821 32.1356 56.4821C32.1356 56.8469 32.4965 56.8469 32.4965 56.485ZM7.18103 106.879C6.09529 106.517 5.00954 105.429 5.3734 103.978C5.73434 98.1774 7.18103 86.5754 12.6039 73.1614C18.0297 59.7444 25.627 53.5816 31.7747 50.6811C31.7747 51.0459 31.7747 51.0459 31.7747 51.4048V51.7666C31.7747 51.7666 31.7747 51.7666 31.4108 51.7666C31.4108 51.7666 31.4108 51.7666 31.0499 51.7666C30.6889 51.7666 30.328 52.1314 30.328 52.1314C29.967 52.4932 29.6032 52.4932 29.2422 52.8551C28.8813 52.8551 28.8813 53.2198 28.5203 53.2198C28.5203 53.2198 28.1565 53.2198 28.1565 53.5816L27.7955 53.9435L27.4346 54.3082C21.6479 59.0179 17.6688 65.1836 16.944 72.4348C16.944 72.4348 16.944 72.4348 16.944 72.7966V73.1614C16.944 73.5203 16.944 73.5203 16.944 73.8851V74.2469C16.944 74.6087 16.944 74.9735 16.944 75.3353L16.583 75.6971L16.2221 76.059L15.8611 76.4237C15.8611 76.4237 15.8611 76.7826 15.4973 76.7826C15.4973 76.7826 15.4973 77.1474 15.1363 77.1474C15.1363 77.1474 15.1363 77.5092 14.7754 77.5092V77.871V78.2358V78.5976V78.9595V82.5865C14.7754 85.4841 17.3049 88.0228 20.2012 88.0228H21.284V88.3846C23.0916 94.1856 27.4317 98.9011 32.8604 101.437H33.2184V102.887C33.2184 103.252 32.8604 103.614 32.4965 103.614L30.6889 103.975C30.6889 103.975 30.6889 103.975 30.328 103.975L16.944 107.964H16.583L7.18103 106.879ZM20.2041 83.6749V84.0368V84.3986H19.4793C19.1184 84.3986 18.3936 84.0368 18.3936 83.3131V79.686C18.3936 79.3242 18.7545 78.6005 19.4793 78.6005H20.2041V81.8629C20.2041 82.9484 20.2041 83.3131 20.2041 83.6749ZM35.7509 108.691C35.7509 108.691 35.7509 108.691 35.7509 108.326C35.7509 108.326 35.7509 108.326 35.7509 107.964C35.7509 107.964 35.7509 107.964 35.7509 107.603C35.7509 107.603 35.7509 107.603 35.7509 107.241C35.7509 107.241 35.7509 107.241 35.7509 106.879C35.7509 106.879 35.7509 106.879 35.7509 106.517C35.7509 106.517 35.7509 106.517 35.7509 106.152C35.7509 106.152 35.7509 106.152 35.7509 105.79C35.7509 105.79 35.7509 105.79 35.7509 105.429C35.7509 105.429 35.7509 105.429 35.7509 105.064C35.7509 105.064 35.7509 105.064 35.7509 104.702H36.1118C36.4727 104.702 36.4727 104.702 36.8366 104.702C37.1975 104.702 37.1975 104.702 37.5585 104.702H37.9223C38.2833 104.702 38.2833 104.702 38.6442 104.702H39.0052C39.3661 104.702 39.3661 104.702 39.73 104.702H40.0909C40.4518 104.702 40.4518 104.702 40.8157 104.702H41.1766C41.5347 104.702 41.5347 104.702 41.8985 104.702H42.2624C42.6204 104.702 42.6204 104.702 42.9843 104.702H43.3452C43.7062 104.702 43.7062 104.702 44.07 104.702C44.07 104.702 44.07 104.702 44.431 104.702C44.431 104.702 44.431 104.702 44.431 105.064C44.431 105.064 44.431 105.064 44.431 105.429C44.431 105.429 44.431 105.429 44.431 105.79C44.431 105.79 44.431 105.79 44.431 106.152C44.431 106.152 44.431 106.152 44.431 106.517C44.431 106.517 44.431 106.517 44.431 106.879C44.431 106.879 44.431 106.879 44.431 107.241C44.431 107.241 44.431 107.241 44.431 107.603C44.431 107.603 44.431 107.603 44.431 107.964C44.431 107.964 44.431 107.964 44.431 108.326C44.431 108.326 44.431 108.326 44.431 108.691C44.431 108.691 44.431 108.691 44.431 109.053C44.431 109.053 44.431 109.053 44.431 109.415C44.431 109.415 44.431 109.415 44.7919 109.415C44.7919 109.415 44.7919 109.415 45.1528 109.415C45.1528 109.415 45.1528 109.415 45.5138 109.415C45.5138 109.415 45.5138 109.415 45.8747 109.415H46.2386H46.5995L48.7681 109.779L62.1521 113.765H62.513C67.575 115.577 75.1548 118.099 75.1548 123.541L75.8971 149.66H69.3884V127.906C69.3884 126.818 69.0246 125.732 68.3027 124.644C65.4093 120.655 60.7083 118.481 55.6435 118.481C50.9425 118.481 46.6024 120.655 43.7062 124.282C43.3452 124.644 42.6204 125.005 42.6204 125.005C42.6204 125.005 41.8985 125.005 41.5347 124.282C38.6442 120.655 34.3042 118.481 29.6003 118.481C24.5383 118.481 20.2012 121.019 16.941 124.644C16.2192 125.732 15.8582 126.818 15.8582 127.906V131.895C15.8582 133.345 16.941 134.069 18.0268 134.069C19.4735 134.069 20.1983 132.98 20.1983 131.895V127.906V127.544C22.3668 124.644 25.6212 123.193 28.8755 123.193C32.1298 123.193 35.3841 124.644 37.1917 127.182C38.2775 128.633 40.0851 129.356 41.8927 129.356C43.7003 129.356 45.508 128.633 46.5937 127.182C48.7623 124.644 51.6586 123.193 54.91 123.193C58.5281 123.193 61.7824 124.644 63.5901 127.544V127.906V149.66H20.565V142.77C20.565 141.323 19.4793 140.596 18.3936 140.596C17.3078 140.596 16.225 141.685 16.225 142.77V149.66H9.71345V126.094C9.71345 120.655 12.8746 116.885 18.0297 114.127C18.0297 114.127 24.3608 110.871 26.6079 110.135C28.8231 109.412 35.7509 108.326 35.7509 108.326V108.691ZM129.785 111.227L133.04 116.666L123.999 130.806L129.785 111.227ZM119.667 119.164L113.662 118.98L113.479 116.427L117.301 113.509L120.212 116.61L119.667 119.164ZM119.664 133.36L116.404 141.594L113.91 133.462L113.971 122.082L119.551 121.839L119.664 133.36ZM110.617 109.415C112.064 109.779 113.511 110.141 114.958 110.141L110.254 114.489L109.896 114.854L107.724 108.691L110.617 109.415ZM110.617 104.702C110.978 103.978 111.339 102.89 111.339 101.802C111.7 101.802 111.7 101.802 112.064 101.802C112.064 101.802 112.064 101.802 112.425 101.802C112.786 101.802 113.15 101.802 113.15 101.802C113.15 101.802 113.15 101.802 113.511 101.802C113.872 101.802 114.233 101.802 114.594 101.802H114.958C115.318 101.802 115.679 101.802 115.679 101.802H116.04C116.404 101.802 116.765 101.802 117.126 101.802C117.487 101.802 117.848 101.802 118.212 101.802C118.212 101.802 118.212 101.802 118.573 101.802C118.934 101.802 119.298 101.802 119.656 101.802C120.019 101.802 120.38 101.802 120.741 101.802C121.105 101.802 121.466 101.802 121.827 101.44C121.827 101.44 121.827 101.44 122.188 101.44C122.188 102.528 122.549 103.255 123.274 104.34L121.827 105.064C118.573 105.79 114.958 105.79 111.7 105.064L110.617 104.702ZM118.576 110.141C120.022 110.141 121.469 109.779 122.916 109.415L125.809 108.691L123.999 114.854L123.638 114.489L118.576 110.141ZM139.915 81.1363C139.915 80.7745 139.915 80.7745 139.915 80.4126C139.915 80.0508 139.915 79.686 139.915 79.3242V75.7001H140.637C140.637 75.7001 140.637 75.7001 140.998 75.7001C141.359 75.7001 141.723 76.0619 141.723 76.7856V80.4126C141.723 81.1363 141.359 81.501 140.637 81.501H139.915C139.915 81.1363 139.915 81.1363 139.915 81.1363ZM92.8934 81.501C92.1715 81.501 91.8106 81.1363 91.8106 80.4126V76.7856C91.8106 76.4266 92.1715 76.0619 92.5325 75.7001C92.5325 75.7001 92.5325 75.7001 92.8934 75.7001C92.8934 75.7001 92.8934 75.7001 93.2573 75.7001H93.6182V79.3242C93.6182 79.686 93.6182 80.0508 93.6182 80.4126C93.6182 80.7745 93.6182 80.7745 93.6182 81.1363V81.501H92.8934ZM96.5116 64.0952C96.1506 64.0952 96.1506 64.0952 96.1506 64.0952C96.1506 64.4599 95.7868 64.8218 95.7868 65.1836C95.4258 66.6338 95.0649 67.7223 95.0649 69.1725V66.9986C95.0649 56.1174 103.387 48.8691 114.236 48.8691H121.469C132.321 48.8691 141.356 56.1174 141.356 66.9986V69.1725V68.8107V68.4459C141.356 68.0841 141.356 67.7223 141.356 67.3575V66.9986C141.356 66.6338 141.356 66.272 140.995 66.272C140.995 66.272 140.995 66.272 140.995 65.9102C140.995 65.9102 140.995 65.9102 140.995 65.5454C140.995 65.5454 140.995 65.5454 140.634 65.5454C140.634 65.5454 140.634 65.5454 140.273 65.5454C140.273 65.5454 140.273 65.5454 139.912 65.5454C139.548 65.5454 139.187 65.5454 138.826 65.9102C136.294 67.3575 133.04 68.0841 129.061 68.0841C125.084 68.0841 120.744 66.6338 116.765 65.5454C111.7 64.0952 106.638 62.2831 101.213 63.3715C97.5973 63.7363 97.2335 63.7363 96.5116 64.0952ZM98.6831 83.3131C98.6831 82.9484 98.6831 82.5895 98.6831 82.5895C98.6831 82.2247 98.6831 81.8629 98.6831 81.501C98.6831 81.1363 98.6831 80.7745 98.6831 80.4126C98.6831 80.0508 98.6831 79.686 98.6831 79.3242V73.5232C98.6831 73.1643 98.6831 73.1643 98.6831 72.7996C98.6831 72.7996 98.6831 72.7996 98.6831 72.4377C98.6831 72.4377 98.6831 72.4377 98.6831 72.0759C98.6831 71.7112 98.6831 71.7112 98.6831 71.3493C98.6831 71.3493 98.6831 71.3493 98.6831 70.9875V70.6257V70.2609V69.8962V69.5343V69.1725V68.8107V68.4459H99.044H99.4079C99.7688 68.4459 99.7688 68.4459 100.13 68.4459C109.896 66.7622 117.97 73.5699 133.133 72.5982L137.135 71.7462L136.771 76.0006C136.771 76.3624 138.104 95.9422 121.469 99.2658C121.108 99.2658 121.108 99.2658 120.744 99.6276C120.744 99.6276 120.744 99.6276 120.383 99.6276C120.022 99.6276 120.022 99.6276 119.659 99.6276H119.3C118.937 99.6276 118.937 99.6276 118.576 99.6276H118.215C117.851 99.6276 117.851 99.6276 117.49 99.6276H117.129C116.768 99.6276 116.768 99.6276 116.407 99.6276H116.043C115.682 99.6276 115.321 99.6276 115.321 99.6276C114.96 99.6276 114.597 99.6276 114.236 99.6276H113.875C113.514 99.6276 113.514 99.6276 113.153 99.6276H112.789H112.428H112.067H111.703H111.342H110.981H110.62H110.257H109.899H109.535C109.535 99.6276 109.174 99.6276 109.174 99.2658C104.47 94.5503 100.13 89.4759 98.6831 83.3131ZM103.748 111.227L109.896 134.069L100.852 116.666L103.748 111.227ZM144.252 149.66V127.544C144.252 126.094 143.169 125.37 142.084 125.37C140.637 125.37 139.915 126.459 139.915 127.544V149.66H93.6182V142.77C93.6182 141.323 92.5325 140.596 91.4467 140.596C90.0029 140.596 89.2782 141.685 89.2782 142.77V149.66H80.601V126.094V125.005C80.601 118.843 84.5772 113.404 90.7277 111.591L101.355 107.734L96.5145 115.216C95.7897 116.304 96.1535 117.754 96.5145 118.478L114.96 147.118C114.96 147.118 114.96 147.118 115.321 147.118C115.321 147.118 115.321 147.118 115.682 147.118C115.682 147.118 115.682 147.118 116.043 147.118C116.043 147.118 116.043 147.118 116.407 147.118L134.853 118.478C135.572 117.389 135.572 116.304 134.853 115.216L130.705 107.249L142.939 111.956C149.684 112.779 154.233 119.204 154.233 125.37L154.236 150.045L144.252 149.66Z" fill="#00335E"/>
</svg>
