<svg width="45" height="45" viewBox="0 0 45 45" fill="none" xmlns="http://www.w3.org/2000/svg">
<path d="M34.0667 42.9998V17.1665C34.0667 16.0865 33.1911 15.2109 32.1111 15.2109H7.77778C6.69776 15.2109 5.82223 16.0865 5.82223 17.1665V42.9998" stroke="white" stroke-width="2.2"/>
<path d="M18.8556 42.2667V33.7111H22.1053V42.2667H18.8556Z" fill="white" stroke="white" stroke-width="1.46667"/>
<path d="M39.5333 43V4.44444C39.5333 3.09442 38.4389 2 37.0889 2H21.0222C19.6722 2 18.5778 3.09442 18.5778 4.44445V14.4885" stroke="white" stroke-width="2.2" stroke-linecap="round"/>
<path d="M4 43L41.3556 43" stroke="white" stroke-width="2.2" stroke-linecap="round"/>
<rect x="23.1333" y="6.1001" width="4.55556" height="4.55556" rx="0.733333" fill="white"/>
<rect x="10.3777" y="18.3999" width="4.55556" height="4.55556" rx="0.733333" fill="white"/>
<rect x="10.3777" y="25.6887" width="4.55556" height="4.55556" rx="0.733333" fill="white"/>
<rect x="10.3777" y="32.9778" width="4.55556" height="4.1" rx="0.733333" fill="white"/>
<rect x="30.4222" y="6.1001" width="4.55556" height="4.55556" rx="0.733333" fill="white"/>
<rect x="18.1223" y="18.3999" width="4.55556" height="4.55556" rx="0.733333" fill="white"/>
<rect x="18.1223" y="25.6887" width="4.55556" height="4.55556" rx="0.733333" fill="white"/>
<rect x="25.8667" y="18.3999" width="4.55556" height="4.55556" rx="0.733333" fill="white"/>
<rect x="25.8667" y="25.6887" width="4.55556" height="4.55556" rx="0.733333" fill="white"/>
<rect x="25.8667" y="32.9778" width="4.55556" height="4.1" rx="0.733333" fill="white"/>
</svg>
