<svg width="45" height="45" viewBox="0 0 45 45" fill="none" xmlns="http://www.w3.org/2000/svg">
<path d="M34.0667 42.9998V17.1665C34.0667 16.0865 33.1912 15.2109 32.1112 15.2109H7.77782C6.6978 15.2109 5.82227 16.0865 5.82227 17.1665V42.9998" stroke="#D7D8D8" stroke-width="2.2"/>
<path d="M18.8556 42.2664V33.7109H22.1053V42.2664H18.8556Z" fill="#D7D8D8" stroke="#D7D8D8" stroke-width="1.46667"/>
<path d="M39.5334 43V4.44444C39.5334 3.09442 38.439 2 37.089 2H21.0223C19.6723 2 18.5779 3.09442 18.5779 4.44445V14.4885" stroke="#D7D8D8" stroke-width="2.2" stroke-linecap="round"/>
<path d="M4 43L41.3556 43" stroke="#D7D8D8" stroke-width="2.2" stroke-linecap="round"/>
<rect x="23.1333" y="6.10059" width="4.55556" height="4.55556" rx="0.733333" fill="#D7D8D8"/>
<rect x="10.3777" y="18.3994" width="4.55556" height="4.55556" rx="0.733333" fill="#D7D8D8"/>
<rect x="10.3777" y="25.6885" width="4.55556" height="4.55556" rx="0.733333" fill="#D7D8D8"/>
<rect x="10.3777" y="32.9775" width="4.55556" height="4.1" rx="0.733333" fill="#D7D8D8"/>
<rect x="30.4221" y="6.10059" width="4.55556" height="4.55556" rx="0.733333" fill="#D7D8D8"/>
<rect x="18.1223" y="18.3994" width="4.55556" height="4.55556" rx="0.733333" fill="#D7D8D8"/>
<rect x="18.1223" y="25.6885" width="4.55556" height="4.55556" rx="0.733333" fill="#D7D8D8"/>
<rect x="25.8667" y="18.3994" width="4.55556" height="4.55556" rx="0.733333" fill="#D7D8D8"/>
<rect x="25.8667" y="25.6885" width="4.55556" height="4.55556" rx="0.733333" fill="#D7D8D8"/>
<rect x="25.8667" y="32.9775" width="4.55556" height="4.1" rx="0.733333" fill="#D7D8D8"/>
</svg>
