<svg width="120" height="120" viewBox="0 0 120 120" fill="none" xmlns="http://www.w3.org/2000/svg">
<path d="M86.0792 39.0327C86.0792 25.8054 75.46 15 62.0464 15C48.6328 15 38.0137 25.8054 38.0137 39.0327C38.0137 43.6902 39.3178 47.9752 41.5534 51.5149L41.926 52.2601C41.926 52.4464 42.1123 52.4464 42.1123 52.6327L62.0464 82.9996L81.7942 52.819C84.5887 48.9067 86.0792 44.2491 86.0792 39.0327ZM62.0464 52.0738C55.3396 52.0738 49.9369 46.6711 49.9369 39.9642C49.9369 33.2574 55.3396 27.8547 62.0464 27.8547C68.7532 27.8547 74.1559 33.2574 74.1559 39.9642C74.1559 46.6711 68.7532 52.0738 62.0464 52.0738Z" fill="#00335E"/>
<path d="M46.7566 70H35.7719C34.1841 70 32.7466 70.9392 32.1088 72.3933L22.4592 94.3933C21.2999 97.0364 23.2361 100 26.1223 100H96.7827C99.6932 100 101.629 96.9906 100.423 94.3419L90.4021 72.3419C89.7524 70.9155 88.3294 70 86.7619 70H77.8816" stroke="#00335E" stroke-width="4.5" stroke-linecap="round" stroke-linejoin="round"/>
</svg>
