<svg width="27" height="27" viewBox="0 0 27 27" fill="none" xmlns="http://www.w3.org/2000/svg">

<path d="M18.474 5.60677L22.3889 9.5217C22.5538 9.68663 22.5538 9.95573 22.3889 10.1207L12.9097 19.5998L8.88194 20.0469C8.34375 20.1076 7.88802 19.6519 7.94878 19.1137L8.39583 15.0859L17.875 5.60677C18.0399 5.44184 18.309 5.44184 18.474 5.60677ZM25.5052 4.61285L23.3872 2.49479C22.7274 1.83507 21.6554 1.83507 20.9913 2.49479L19.4549 4.03125C19.2899 4.19618 19.2899 4.46528 19.4549 4.63021L23.3698 8.54514C23.5347 8.71007 23.8038 8.71007 23.9687 8.54514L25.5052 7.00868C26.1649 6.34462 26.1649 5.27257 25.5052 4.61285V4.61285ZM17.6667 17.0217V21.4401H3.77778V7.55122H13.7517C13.8906 7.55122 14.0208 7.49479 14.1207 7.39931L15.8568 5.66319C16.1866 5.33333 15.9523 4.77344 15.4878 4.77344H3.08333C1.93316 4.77344 1 5.7066 1 6.85677V22.1345C1 23.2847 1.93316 24.2179 3.08333 24.2179H18.3611C19.5113 24.2179 20.4444 23.2847 20.4444 22.1345V15.2856C20.4444 14.8212 19.8845 14.5911 19.5547 14.9167L17.8186 16.6528C17.7231 16.7526 17.6667 16.8828 17.6667 17.0217Z" fill="#00335E"/>
</svg>

